?xml version="1.0" encoding="UTF-8" standalone="no"?>
<svg
   xmlns:dc="http://purl.org/dc/elements/1.1/"
   xmlns:cc="http://creativecommons.org/ns#"
   xmlns:rdf="http://www.w3.org/1999/02/22-rdf-syntax-ns#"
   xmlns:svg="http://www.w3.org/2000/svg"
   xmlns="http://www.w3.org/2000/svg"
   xmlns:sodipodi="http://sodipodi.sourceforge.net/DTD/sodipodi-0.dtd"
   xmlns:inkscape="http://www.inkscape.org/namespaces/inkscape"
   width="106.09375pt"
   height="240.8634pt"
   viewBox="0 0 106.09375 240.8634"
   version="1.2"
   id="svg953"
   sodipodi:docname="small_white.svg"
   inkscape:version="0.92.3 (2405546, 2018-03-11)">
  <metadata
     id="metadata957">
    <rdf:RDF>
      <cc:Work
         rdf:about="">
        <dc:format>image/svg+xml</dc:format>
        <dc:type
           rdf:resource="http://purl.org/dc/dcmitype/StillImage" />
        <dc:title></dc:title>
      </cc:Work>
    </rdf:RDF>
  </metadata>
  <sodipodi:namedview
     pagecolor="#ffffff"
     bordercolor="#666666"
     borderopacity="1"
     objecttolerance="10"
     gridtolerance="10"
     guidetolerance="10"
     inkscape:pageopacity="0"
     inkscape:pageshadow="2"
     inkscape:window-width="1920"
     inkscape:window-height="1043"
     id="namedview955"
     showgrid="false"
     inkscape:zoom="0.46490006"
     inkscape:cx="1028.7352"
     inkscape:cy="87.364333"
     inkscape:window-x="1920"
     inkscape:window-y="0"
     inkscape:window-maximized="1"
     inkscape:current-layer="surface38149" />
  <defs
     id="defs862">
    <clipPath
       id="clip1">
      <path
         d="m 300,300 h 13 v 34.53906 h -13 z m 0,0"
         id="path856"
         inkscape:connector-curvature="0" />
    </clipPath>
    <clipPath
       id="clip2">
      <path
         d="m 488,293 h 28.23828 v 35 H 488 Z m 0,0"
         id="path859"
         inkscape:connector-curvature="0" />
    </clipPath>
  </defs>
  <g
     id="surface38149"
     transform="translate(513.43138,8.070156)">
    <path
       style="fill:#ffffff;fill-opacity:1;fill-rule:evenodd;stroke:none"
       d="m -460.3845,131.61344 c -24.10547,0 -43.30079,-14.28906 -52.85547,-28.97656 l -0.19141,-0.29688 h 106.09375 l -0.1875,0.29297 c -11.43359,18.22266 -30.77734,28.98047 -52.85937,28.98047 z m 9.19921,101.17969 h -18.40234 v -96.71875 l 0.24219,0.0664 c 7.11719,1.94531 10.8164,2.23828 17.91406,0.004 l 0.24609,-0.082 v 96.73047"
       id="path864"
       inkscape:connector-curvature="0" />
    <path
       style="fill:#ffffff;fill-opacity:1;fill-rule:evenodd;stroke:none"
       d="m -450.55638,3.7306253 c 8.98438,8.3124997 6.96875,20.7109367 5.03516,24.4609367 -4.21485,8.167969 -13.59766,18.675782 -15.96875,21.550782 -3.95313,4.792968 -15.83594,16.488281 -17.1211,22.949218 -1.07812,5.445313 0.62891,13.4375 1.36719,16.398438 -2.63281,0 -7.45703,-0.0039 -7.45703,-0.0039 -1.89844,-4.914063 -4.96875,-13.921875 -3.20703,-24.105469 1.29687,-7.488281 11.88281,-19.328125 13.83984,-21.550781 3.50781,-3.984375 13.31641,-15.921875 17.30078,-21.097656 4.54297,-5.898438 4.20313,-9.679688 1.14844,-14.4218757 0.043,0.046876 5.0625,-4.179687 5.0625,-4.179687 z m -7.85937,95.2890627 h -12.83204 c -2.625,-7.734376 -5.96093,-17.914063 -2.79296,-25.945313 3.41406,-8.636719 18.91406,-21.023437 28.53906,-31.800781 5.17578,-6.488282 7.11719,-10.570313 3.99219,-16.164063 0,0 5.09765,-4.203125 5.09765,-4.214843 5.44531,4.671874 9.41016,17.09375 3.48438,24.761718 -3.58594,4.636719 -7.29688,8.597656 -12.11328,13.785156 -4.69532,5.058594 -9.34766,9.425782 -15.69922,16.722657 -4.85547,5.585937 0.57422,16.773437 2.32422,22.855469 z m 14.71484,0 h -10.89063 c -1.02734,-3.886719 -2.66015,-7.964844 -3.29687,-11.929688 -0.77734,-4.855469 -0.44531,-7.621094 3.03125,-11.164062 4.97656,-5.074219 17.23437,-13.308594 20.17969,-17.074219 2.53906,-3.25 1.03515,-7.449219 1.03515,-7.449219 -0.004,0.0078 5.03516,-4.191406 5.01172,-4.191406 6.23047,7.238281 4.51172,17.785156 -0.16015,21.761718 -3.39063,2.882813 -10.6875,8.914063 -15.49219,13.730469 -2.59375,2.632813 -2.76563,2.828125 -1.86328,6.929688 0.7539,3.144531 1.80078,7.167969 2.44531,9.386719 z m -47.73047,-29.71875 c -2.94141,-4.292969 -4.37109,-8.355469 -4.70312,-13.757813 -0.75,-12.160156 8,-22.074219 15.26562,-32.285156 6.23047,-8.75 12.06641,-16.6132807 12.76953,-20.0234377 0.52344,-2.53125 -0.52344,-5.308593 -1.3164,-7.011719 -0.008,0.00391 4.60937,-3.890624 5.14062,-4.2929683 6.70703,6.1250003 7.10938,15.6054683 3.71484,22.765625 -7.625,16.0625 -33.08984,36.882812 -30.87109,54.605469"
       id="path866"
       inkscape:connector-curvature="0" />
    <path
       style="fill:#211e1e;fill-opacity:1;fill-rule:nonzero;stroke:none"
       d="m 39.679688,252.66016 v 0.92578 l -0.128907,0.13281 c -0.867187,0.0234 -1.53125,0.0586 -1.996093,0.10937 -0.460938,0.0508 -0.800782,0.14063 -1.011719,0.27735 -0.207031,0.13672 -0.347657,0.45703 -0.414063,0.95703 -0.07031,0.5 -0.105468,1.19922 -0.105468,2.08984 l -0.03516,4.26953 v 13.32422 c 0,1.95703 -0.175781,3.5586 -0.519531,4.80078 -0.347656,1.24219 -0.953125,2.39454 -1.820312,3.45313 -0.867188,1.05859 -1.761719,1.84375 -2.683594,2.35937 -0.921875,0.51172 -1.832032,0.76954 -2.738282,0.76954 -0.257812,0 -0.519531,-0.0312 -0.777343,-0.0937 0.02344,-0.4961 0.04297,-0.99219 0.05469,-1.48438 0,-0.30859 -0.01953,-0.76953 -0.05469,-1.375 l 0.351562,-0.24219 c 0.632813,0.47266 1.292969,0.70703 1.988281,0.70703 0.605469,0 1.101563,-0.11328 1.492188,-0.34375 0.390625,-0.23046 0.664062,-0.53906 0.828125,-0.92968 0.160156,-0.38672 0.257813,-1.10157 0.296875,-2.14063 0.03516,-1.04297 0.05469,-1.93359 0.05469,-2.67578 v -16.12891 l -0.03906,-3.62109 c -0.01172,-1.41016 -0.04687,-2.32031 -0.109375,-2.73047 -0.0625,-0.40625 -0.152344,-0.67969 -0.269531,-0.8164 -0.117188,-0.13672 -0.339844,-0.2461 -0.667969,-0.33204 -0.328125,-0.0859 -1.15625,-0.15625 -2.476562,-0.20312 l -0.132813,-0.13281 v -0.92578 l 0.132813,-0.13282 c 3.128906,0.10157 4.90625,0.14844 5.324218,0.14844 0.433594,0 2.210938,-0.0469 5.328125,-0.14844 l 0.128907,0.13282"
       id="path868"
       inkscape:connector-curvature="0" />
    <path
       style="fill:#211e1e;fill-opacity:1;fill-rule:nonzero;stroke:none"
       d="m 40.832031,254.27344 -0.167969,-0.16797 v -0.77735 l 0.167969,-0.16796 5.253907,-0.875 c 0.371093,0.26171 0.734374,0.58984 1.085937,0.98437 0.351563,0.39844 0.867187,1.13672 1.539063,2.21875 0.675781,1.08594 1.546874,2.59375 2.609374,4.53125 1.066407,1.93359 2.085938,3.875 3.0625,5.82031 l 1.894532,-3.00781 2.132812,-3.56641 3.9375,-6.73828 c 0.480469,0.0508 0.953125,0.0742 1.410156,0.0742 0.285157,0 0.71875,-0.0234 1.300782,-0.0742 l 0.148437,0.14844 v 0.35547 c -0.621093,0.67969 -1.578125,1.91406 -2.878906,3.70312 -1.296875,1.78907 -2.269531,3.1875 -2.90625,4.19532 -0.636719,1.00781 -1.417969,2.27343 -2.347656,3.80468 -0.925781,1.52735 -1.433594,2.44532 -1.519531,2.75782 -0.08984,0.30859 -0.132813,0.67187 -0.132813,1.09375 v 2.73047 l 0.01953,2.78125 c 0.01172,1.07812 0.05078,1.82812 0.121094,2.25781 0.06641,0.42578 0.160156,0.70312 0.277344,0.83594 0.117187,0.1289 0.339844,0.23828 0.667968,0.32421 0.328126,0.0859 1.148438,0.15235 2.460938,0.20313 l 0.148438,0.10937 v 0.92969 l -0.148438,0.14844 c -0.0625,0 -1.152344,-0.0391 -3.265625,-0.10938 -0.878906,-0.0273 -1.566406,-0.0391 -2.0625,-0.0391 -0.394531,0 -2.164063,0.0508 -5.308594,0.14844 l -0.148437,-0.14844 v -0.92969 l 0.148437,-0.10937 c 1.175781,-0.0508 1.949219,-0.11328 2.320313,-0.1875 0.371094,-0.0742 0.621094,-0.16797 0.753906,-0.28516 0.128906,-0.11718 0.230469,-0.34765 0.304688,-0.6875 0.07422,-0.33984 0.117187,-1.03515 0.128906,-2.08984 l 0.03906,-3.17188 v -3.52734 c -0.273437,-0.66797 -1.183594,-2.27344 -2.730468,-4.80859 l -1.632813,-2.65235 c -0.519531,-0.84375 -1.171875,-1.82422 -1.957031,-2.94531 -0.789063,-1.12109 -1.398438,-1.87891 -1.832032,-2.28125 -0.433593,-0.40234 -0.765624,-0.63672 -1,-0.70703 -0.234374,-0.0664 -0.867187,-0.10156 -1.894531,-0.10156"
       id="path870"
       inkscape:connector-curvature="0" />
    <path
       style="fill:#211e1e;fill-opacity:1;fill-rule:nonzero;stroke:none"
       d="m 78.683594,279.09375 c -0.1875,-0.54688 -0.960938,-2.625 -2.320313,-6.23828 l -6.3125,-15.61328 c -0.71875,-1.78125 -1.167969,-2.79297 -1.355469,-3.03516 -0.183593,-0.23828 -0.925781,-0.40234 -2.226562,-0.48828 l -0.167969,-0.16797 v -0.85547 l 0.167969,-0.16797 c 1.890625,0.10157 3.5,0.14844 4.824219,0.14844 1.238281,0 2.878906,-0.0469 4.921875,-0.14844 l 0.148437,0.14844 v 1.02344 l -0.148437,0.14844 c -1.5,0 -2.394532,0.0469 -2.683594,0.13671 -0.292969,0.0937 -0.4375,0.26954 -0.4375,0.53125 0,0.14844 0.199219,0.8086 0.59375,1.97657 0.398438,1.16797 0.75,2.15625 1.058594,2.96093 l 5.8125,14.6836 4.84375,-12.17969 c 0.332031,-0.82812 0.824218,-2.16406 1.464844,-4.00781 0.644531,-1.84375 0.96875,-2.95313 0.96875,-3.32422 0,-0.30859 -0.152344,-0.50781 -0.457032,-0.59375 -0.304687,-0.0859 -1.210937,-0.19141 -2.71875,-0.3125 l -0.167968,-0.14844 v -0.89453 l 0.167968,-0.14844 c 2.164063,0.10157 3.546875,0.14844 4.140625,0.14844 0.480469,0 1.730469,-0.0469 3.746094,-0.14844 l 0.152344,0.14844 v 0.89453 l -0.152344,0.14844 c -0.890625,0.0352 -1.425781,0.10156 -1.613281,0.20312 -0.183594,0.0977 -0.347656,0.28907 -0.492188,0.57422 -0.140625,0.28516 -0.585937,1.26172 -1.328125,2.9336 l -5.789062,14.25781 c -1.300781,3.17969 -2.222657,5.64844 -2.765625,7.40625 h -1.875"
       id="path872"
       inkscape:connector-curvature="0" />
    <path
       style="fill:#211e1e;fill-opacity:1;fill-rule:nonzero;stroke:none"
       d="m 108.07031,249.16797 c -0.58203,0 -1.07422,-0.19922 -1.48437,-0.60156 -0.40625,-0.40235 -0.60938,-0.89454 -0.60938,-1.47657 0,-0.58203 0.20313,-1.07812 0.60938,-1.48437 0.41015,-0.41016 0.90234,-0.61328 1.48437,-0.61328 0.58203,0 1.07422,0.20312 1.47657,0.61328 0.40234,0.40625 0.60546,0.90234 0.60546,1.48437 0,0.58203 -0.20312,1.07422 -0.60546,1.47657 -0.40235,0.40234 -0.89454,0.60156 -1.47657,0.60156 z m -9.984372,19.32422 h 9.390622 l -4.65625,-11.19141 z m 0.835937,-19.32422 c -0.582031,0 -1.078125,-0.19922 -1.488281,-0.60156 -0.40625,-0.40235 -0.609375,-0.89454 -0.609375,-1.47657 0,-0.58203 0.203125,-1.07812 0.609375,-1.48437 0.410156,-0.41016 0.90625,-0.61328 1.488281,-0.61328 0.582031,0 1.070313,0.20312 1.472655,0.61328 0.40235,0.40625 0.60547,0.90234 0.60547,1.48437 0,0.58203 -0.20312,1.07422 -0.60547,1.47657 -0.402342,0.40234 -0.890624,0.60156 -1.472655,0.60156 z m -9.300781,29.73828 -0.167969,-0.14844 v -0.96484 l 0.167969,-0.14844 c 0.902344,-0.0117 1.484375,-0.0586 1.742187,-0.14062 0.261719,-0.0781 0.492188,-0.23829 0.699219,-0.48047 0.203125,-0.24219 0.613281,-1.03125 1.234375,-2.36719 l 1.949219,-4.23438 5.046876,-11.43359 c 0.95312,-2.24219 1.90234,-4.48047 2.83984,-6.71875 h 1.20703 l 7.92579,18.63672 1.05859,2.48828 c 0.3125,0.70313 0.66406,1.47266 1.07031,2.30078 0.40235,0.82813 0.67969,1.31641 0.83203,1.46485 0.15625,0.14843 0.34766,0.26562 0.57813,0.34375 0.22656,0.082 0.73828,0.1289 1.53125,0.14062 l 0.14844,0.14844 v 0.96484 l -0.14844,0.14844 c -1.3125,-0.10938 -2.4961,-0.16797 -3.54688,-0.16797 -2.05468,0.0625 -4.10937,0.11719 -6.16406,0.16797 l -0.14844,-0.14844 v -0.96484 l 0.14844,-0.14844 c 1.38672,-0.0273 2.25391,-0.082 2.60156,-0.17578 0.34375,-0.0937 0.51953,-0.30859 0.51953,-0.64063 0,-0.27343 -0.0898,-0.63281 -0.26171,-1.07812 l -2.28125,-5.66016 H 97.453125 l -2.023437,4.75 c -0.359376,0.85547 -0.535157,1.48047 -0.535157,1.875 0,0.3125 0.164063,0.53907 0.5,0.6875 0.332031,0.14844 1.175781,0.23047 2.523438,0.24219 l 0.167969,0.14844 v 0.96484 l -0.148438,0.14844 c -1.597656,-0.0977 -2.996094,-0.14844 -4.195312,-0.14844 -1.363282,0 -2.734376,0.0508 -4.121094,0.14844"
       id="path874"
       inkscape:connector-curvature="0" />
    <path
       style="fill:#211e1e;fill-opacity:1;fill-rule:nonzero;stroke:none"
       d="m 119.83984,272.37109 0.14844,-0.14843 h 0.91016 l 0.14844,0.14843 c 0.0625,1.58594 0.14453,2.55469 0.25,2.90625 0.10546,0.35157 0.4414,0.72266 1.0039,1.11328 0.5625,0.39063 1.3125,0.71094 2.2461,0.95704 0.93359,0.24609 1.8789,0.37109 2.83203,0.37109 1.30859,0 2.48828,-0.24219 3.53515,-0.72656 1.04688,-0.48047 1.85938,-1.1875 2.44141,-2.125 0.58203,-0.9336 0.87109,-1.98047 0.87109,-3.14453 0,-0.81641 -0.13672,-1.52735 -0.41797,-2.13282 -0.27734,-0.60937 -0.66797,-1.09375 -1.16797,-1.45703 -0.5,-0.36719 -1.07421,-0.64062 -1.71875,-0.82031 -0.64453,-0.17578 -1.60156,-0.37109 -2.875,-0.58203 -1.23828,-0.19922 -2.20703,-0.37891 -2.90624,-0.53906 -0.69922,-0.16016 -1.39454,-0.41016 -2.08985,-0.74219 -0.6914,-0.33594 -1.26953,-0.75781 -1.73437,-1.27344 -0.46485,-0.51172 -0.83594,-1.14453 -1.11328,-1.89062 -0.27735,-0.75 -0.41797,-1.55079 -0.41797,-2.40625 0,-2.3125 0.80468,-4.21094 2.41406,-5.6875 1.60937,-1.48047 3.76953,-2.21875 6.47656,-2.21875 1.07813,0 2.25,0.13281 3.51953,0.39843 1.26953,0.26563 2.42188,0.66016 3.46094,1.17969 l 0.12891,0.22266 c -0.26954,1.13672 -0.4375,2.75781 -0.5,4.86328 l -0.16797,0.14844 h -0.96485 l -0.14843,-0.12891 c -0.0234,-1.48828 -0.0625,-2.42188 -0.10938,-2.80469 -0.0508,-0.38281 -0.61328,-0.85937 -1.69141,-1.42969 -1.07421,-0.57031 -2.24609,-0.85156 -3.50781,-0.85156 -1.05078,0 -2.03515,0.20703 -2.95312,0.62891 -0.91406,0.42187 -1.60547,1.08203 -2.07813,1.98828 -0.46875,0.90234 -0.70312,1.82422 -0.70312,2.76562 0,0.73047 0.14062,1.375 0.42578,1.9375 0.28516,0.5625 0.65234,1.00782 1.10547,1.33594 0.44922,0.32813 0.97656,0.57422 1.57812,0.73438 0.59766,0.16015 1.69922,0.35937 3.29297,0.59375 2.19141,0.30859 3.78516,0.68359 4.78125,1.125 0.99609,0.4375 1.79297,1.13281 2.39453,2.08593 0.60156,0.95313 0.89844,2.10547 0.89844,3.45313 0,2.63672 -1.07422,4.83203 -3.21875,6.58984 -2.14844,1.75782 -4.75,2.63672 -7.80859,2.63672 -2.5586,0 -4.80469,-0.45703 -6.73438,-1.375 l -0.11328,-0.24219 c 0.125,-0.77734 0.21484,-2.59765 0.27734,-5.45703"
       id="path876"
       inkscape:connector-curvature="0" />
    <path
       style="fill:#211e1e;fill-opacity:1;fill-rule:nonzero;stroke:none"
       d="m 146.51562,265.32031 c 3.10547,-2.8125 5.34766,-4.90625 6.73047,-6.28515 1.37891,-1.37891 2.51563,-2.51954 3.41407,-3.41797 0.89843,-0.89453 1.43359,-1.47266 1.60546,-1.73438 v -1.20703 l 0.1875,-0.14844 c 0.9375,0.0508 1.96485,0.0742 3.07813,0.0742 0.25,0 1.22656,-0.0156 2.93359,-0.0547 l 0.1875,0.16797 v 0.8711 l -0.14843,0.14843 c -1.15235,0 -1.9375,0.0664 -2.35938,0.19532 -0.41797,0.1289 -1.03516,0.52734 -1.84375,1.1875 -0.8125,0.66406 -1.74219,1.47656 -2.79687,2.4414 l -7.51563,6.86719 11.17188,10.33984 c 1.79687,1.67188 2.80078,2.58204 3.01953,2.73047 0.21484,0.14844 0.66406,0.23438 1.34375,0.26172 l 0.1289,0.14844 v 0.77734 l -0.1289,0.14844 c -0.71485,-0.0508 -1.46094,-0.0742 -2.22657,-0.0742 -0.45703,0 -1.46093,0.0234 -3.00781,0.0742 -1.125,-1.0625 -2.11328,-2.00391 -2.96094,-2.82031 -0.84765,-0.81641 -4.45312,-4.13281 -10.8125,-9.94922 v 3.95312 l 0.0195,3.6211 c 0.0117,1.39844 0.0469,2.30078 0.10937,2.70703 0.0625,0.41016 0.15234,0.68359 0.26953,0.81641 0.11719,0.13671 0.34375,0.25 0.67969,0.34375 0.33203,0.0937 1.15625,0.16406 2.46875,0.21484 l 0.14844,0.10937 v 0.92969 l -0.14844,0.14844 c -0.0625,0 -1.15234,-0.0391 -3.26953,-0.10938 -0.87891,-0.0273 -1.5625,-0.0391 -2.0586,-0.0391 -0.38281,0 -2.15234,0.0508 -5.30859,0.14844 l -0.14844,-0.14844 v -0.92969 l 0.14844,-0.10937 c 1.14844,-0.0508 1.91797,-0.11328 2.30078,-0.1875 0.38281,-0.0742 0.64063,-0.16797 0.76953,-0.28516 0.13282,-0.11718 0.23438,-0.36718 0.31641,-0.7539 0.082,-0.38282 0.125,-1.23438 0.14062,-2.5586 l 0.0156,-3.91797 v -8.59375 l -0.0352,-3.62109 c -0.0117,-1.41016 -0.0469,-2.32031 -0.10156,-2.73047 -0.0586,-0.40625 -0.14453,-0.67969 -0.26172,-0.8164 -0.11719,-0.13672 -0.34375,-0.2461 -0.67578,-0.33204 -0.33594,-0.0859 -1.16016,-0.15625 -2.46875,-0.20312 l -0.14844,-0.13281 v -0.92578 l 0.14844,-0.13282 2.32031,0.0742 c 1.52344,0.0508 2.51563,0.0742 2.98828,0.0742 0.41797,0 2.19532,-0.0469 5.32813,-0.14844 l 0.14844,0.13282 v 0.92578 l -0.14844,0.13281 c -0.85547,0.0234 -1.51563,0.0586 -1.97656,0.10937 -0.46485,0.0508 -0.80469,0.14063 -1.01172,0.27735 -0.21094,0.13672 -0.35156,0.45703 -0.41797,0.95703 -0.0703,0.5 -0.10156,1.19922 -0.10156,2.08984 l -0.0391,4.26953 v 3.89844"
       id="path878"
       inkscape:connector-curvature="0" />
    <path
       style="fill:#211e1e;fill-opacity:1;fill-rule:nonzero;stroke:none"
       d="m 166.21094,254.27344 -0.16797,-0.16797 v -0.77735 l 0.16797,-0.16796 5.2539,-0.875 c 0.3711,0.26171 0.73438,0.58984 1.08594,0.98437 0.35156,0.39844 0.86719,1.13672 1.53906,2.21875 0.67578,1.08594 1.54688,2.59375 2.60938,4.53125 1.0625,1.93359 2.08594,3.875 3.0625,5.82031 l 1.89453,-3.00781 2.13281,-3.56641 3.9375,-6.73828 c 0.48047,0.0508 0.95313,0.0742 1.41016,0.0742 0.28515,0 0.71875,-0.0234 1.30078,-0.0742 l 0.14844,0.14844 v 0.35547 c -0.6211,0.67969 -1.57813,1.91406 -2.87891,3.70312 -1.30078,1.78907 -2.26953,3.1875 -2.90625,4.19532 -0.63672,1.00781 -1.41797,2.27343 -2.34766,3.80468 -0.92968,1.52735 -1.43359,2.44532 -1.51953,2.75782 -0.0898,0.30859 -0.13281,0.67187 -0.13281,1.09375 v 2.73047 l 0.0195,2.78125 c 0.0117,1.07812 0.0508,1.82812 0.1211,2.25781 0.0664,0.42578 0.16015,0.70312 0.27734,0.83594 0.11719,0.1289 0.33984,0.23828 0.66797,0.32421 0.32812,0.0859 1.14844,0.15235 2.46094,0.20313 l 0.14843,0.10937 v 0.92969 l -0.14843,0.14844 c -0.0625,0 -1.15235,-0.0391 -3.26954,-0.10938 -0.8789,-0.0273 -1.5625,-0.0391 -2.05859,-0.0391 -0.39453,0 -2.16406,0.0508 -5.30859,0.14844 l -0.14844,-0.14844 v -0.92969 l 0.14844,-0.10937 c 1.17578,-0.0508 1.94922,-0.11328 2.32031,-0.1875 0.37109,-0.0742 0.62109,-0.16797 0.75,-0.28516 0.13281,-0.11718 0.23437,-0.34765 0.30859,-0.6875 0.0742,-0.33984 0.11719,-1.03515 0.12891,-2.08984 l 0.0391,-3.17188 v -3.52734 c -0.27344,-0.66797 -1.18359,-2.27344 -2.73047,-4.80859 l -1.63281,-2.65235 c -0.51953,-0.84375 -1.17187,-1.82422 -1.95703,-2.94531 -0.78906,-1.12109 -1.39844,-1.87891 -1.83203,-2.28125 -0.4336,-0.40234 -0.76563,-0.63672 -1,-0.70703 -0.23828,-0.0664 -0.86719,-0.10156 -1.89453,-0.10156"
       id="path880"
       inkscape:connector-curvature="0" />
    <path
       style="fill:#211e1e;fill-opacity:1;fill-rule:nonzero;stroke:none"
       d="m 191.97656,252.66016 0.14844,-0.13282 c 3.07031,0.10157 4.83984,0.14844 5.30859,0.14844 0.42188,0 2.19532,-0.0469 5.32813,-0.14844 l 0.14844,0.13282 v 0.92578 l -0.14844,0.13281 c -0.85547,0.0234 -1.51172,0.0586 -1.97656,0.10937 -0.46485,0.0508 -0.80079,0.14063 -1.01172,0.27735 -0.21094,0.13672 -0.35157,0.45703 -0.41797,0.95703 -0.0703,0.5 -0.10156,1.19922 -0.10156,2.08984 l -0.0391,4.26953 v 8.20313 c 0,2.05469 0.0117,3.48828 0.0391,4.30859 l 0.0937,3.21094 h 3.78515 c 3.01953,0 4.90235,-0.0391 5.65235,-0.11328 0.75,-0.0742 1.46875,-0.25391 2.16406,-0.53906 0.13672,-0.3086 0.32812,-1.01953 0.58203,-2.13282 0.25391,-1.11718 0.38672,-1.75781 0.40234,-1.92968 l 0.16407,-0.14844 h 0.91015 l 0.12891,0.14844 c -0.0977,0.49218 -0.19922,1.45312 -0.30469,2.875 -0.10547,1.42578 -0.15625,2.57422 -0.15625,3.45312 l -0.15234,0.14844 c -2.34766,-0.0742 -5.4375,-0.10938 -9.26172,-0.10938 l -5.41797,-0.0391 c -1.23828,0 -2.5,0.0508 -3.78906,0.14844 l -0.14844,-0.14844 v -0.61328 l 0.14844,-0.18359 c 0.76953,-0.39844 1.1875,-0.63672 1.26172,-0.72657 0.0742,-0.0859 0.15234,-0.88281 0.23437,-2.39453 0.0781,-1.50781 0.12109,-3.32812 0.12109,-5.45703 v -7.96094 l -0.0391,-3.62109 c -0.0117,-1.41016 -0.0469,-2.32031 -0.10156,-2.73047 -0.0547,-0.40625 -0.14063,-0.67969 -0.26172,-0.8164 -0.11719,-0.13672 -0.33984,-0.2461 -0.67578,-0.33204 -0.33203,-0.0859 -1.15625,-0.15625 -2.46875,-0.20312 l -0.14844,-0.13281 v -0.92578"
       id="path882"
       inkscape:connector-curvature="0" />
    <path
       style="fill:#211e1e;fill-opacity:1;fill-rule:nonzero;stroke:none"
       d="m 233.78125,249.16797 c -0.58203,0 -1.07813,-0.19922 -1.48438,-0.60156 -0.41015,-0.40235 -0.61328,-0.89454 -0.61328,-1.47657 0,-0.58203 0.20313,-1.07812 0.61328,-1.48437 0.40625,-0.41016 0.90235,-0.61328 1.48438,-0.61328 0.58203,0 1.07422,0.20312 1.47656,0.61328 0.39844,0.40625 0.60156,0.90234 0.60156,1.48437 0,0.58203 -0.20312,1.07422 -0.60156,1.47657 -0.40234,0.40234 -0.89453,0.60156 -1.47656,0.60156 z m -9.98828,19.32422 h 9.39453 l -4.66016,-11.19141 z m 0.83594,-19.32422 c -0.58204,0 -1.07813,-0.19922 -1.48438,-0.60156 -0.41016,-0.40235 -0.61328,-0.89454 -0.61328,-1.47657 0,-0.58203 0.20312,-1.07812 0.61328,-1.48437 0.40625,-0.41016 0.90234,-0.61328 1.48438,-0.61328 0.58203,0 1.07421,0.20312 1.47656,0.61328 0.40234,0.40625 0.60156,0.90234 0.60156,1.48437 0,0.58203 -0.19922,1.07422 -0.60156,1.47657 -0.40235,0.40234 -0.89453,0.60156 -1.47656,0.60156 z m -9.30079,29.73828 -0.16796,-0.14844 v -0.96484 l 0.16796,-0.14844 c 0.90235,-0.0117 1.48438,-0.0586 1.7461,-0.14062 0.25781,-0.0781 0.49219,-0.23829 0.69531,-0.48047 0.20313,-0.24219 0.61719,-1.03125 1.23438,-2.36719 l 1.94921,-4.23438 5.05079,-11.43359 c 0.94921,-2.24219 1.89843,-4.48047 2.83984,-6.71875 h 1.20703 l 7.92578,18.63672 1.05469,2.48828 c 0.3125,0.70313 0.66797,1.47266 1.07031,2.30078 0.40235,0.82813 0.67969,1.31641 0.83594,1.46485 0.15234,0.14843 0.34375,0.26562 0.57422,0.34375 0.22656,0.082 0.73828,0.1289 1.53125,0.14062 l 0.14844,0.14844 v 0.96484 l -0.14844,0.14844 c -1.3125,-0.10938 -2.49219,-0.16797 -3.54688,-0.16797 -2.05468,0.0625 -4.10547,0.11719 -6.16015,0.16797 l -0.14844,-0.14844 v -0.96484 l 0.14844,-0.14844 c 1.38281,-0.0273 2.25,-0.082 2.59765,-0.17578 0.34766,-0.0937 0.51953,-0.30859 0.51953,-0.64063 0,-0.27343 -0.0859,-0.63281 -0.26171,-1.07812 l -2.28125,-5.66016 h -10.75 l -2.01954,4.75 c -0.35937,0.85547 -0.53906,1.48047 -0.53906,1.875 0,0.3125 0.16797,0.53907 0.5,0.6875 0.33594,0.14844 1.17578,0.23047 2.52344,0.24219 l 0.16797,0.14844 v 0.96484 l -0.14844,0.14844 c -1.59766,-0.0977 -2.99609,-0.14844 -4.19531,-0.14844 -1.35938,0 -2.73438,0.0508 -4.1211,0.14844"
       id="path884"
       inkscape:connector-curvature="0" />
    <path
       style="fill:#211e1e;fill-opacity:1;fill-rule:nonzero;stroke:none"
       d="m 245.30859,278.88672 -0.16797,-0.16406 v -0.85547 l 0.16797,-0.14844 c 0.75391,-0.0117 1.35547,-0.0586 1.8086,-0.12891 0.45312,-0.0742 0.74218,-0.19922 0.875,-0.37109 0.1289,-0.17578 0.21484,-0.45313 0.25781,-0.83594 0.043,-0.38672 0.0859,-1.25 0.12891,-2.59765 0.043,-1.35157 0.0664,-2.31641 0.0664,-2.89844 v -14.9961 c 0,-0.63281 -0.11328,-1.10156 -0.34375,-1.40234 -0.23047,-0.30469 -0.53906,-0.49609 -0.9375,-0.57812 -0.39453,-0.0781 -1.07031,-0.125 -2.02344,-0.13672 l -0.14843,-0.14844 v -0.875 l 0.14843,-0.16406 c 1.70704,0.0625 2.82813,0.0898 3.35938,0.0898 1.25,0 2.27734,-0.0273 3.08203,-0.0898 l 5.92188,7.68359 8.70703,10.91406 c 1.05078,1.32422 2.12109,2.58203 3.21093,3.76953 v -14.36718 c 0,-0.44532 -0.0234,-1.39453 -0.0664,-2.85157 -0.043,-1.45312 -0.0937,-2.375 -0.15625,-2.76562 -0.0625,-0.39063 -0.17188,-0.65234 -0.32422,-0.78906 -0.15625,-0.13672 -0.44531,-0.23828 -0.875,-0.30469 -0.42578,-0.0664 -1.00391,-0.10938 -1.73438,-0.12109 l -0.14843,-0.14844 V 252.75 l 0.14843,-0.16406 c 1.00391,0.0625 2.42969,0.0898 4.28907,0.0898 1.69531,0 2.92578,-0.0273 3.6914,-0.0898 l 0.16797,0.16406 v 0.85547 l -0.14844,0.14844 c -0.8164,0.0117 -1.44921,0.0586 -1.89453,0.14062 -0.4414,0.0781 -0.72265,0.21094 -0.83203,0.39844 -0.11328,0.18359 -0.1914,0.45703 -0.23437,0.8164 -0.043,0.35938 -0.0859,1.21094 -0.12891,2.5625 -0.043,1.34766 -0.0664,2.32032 -0.0664,2.91407 v 8.8164 l 0.0195,5.10547 c 0.0234,1.67188 0.0508,3.34766 0.0742,5.02735 -0.61718,-0.20704 -1.6875,-0.46875 -3.21093,-0.77735 l -1.31641,-1.55859 -3.95312,-4.82813 -12.58594,-15.72265 v 14.23828 c 0,0.57031 0.0195,1.58594 0.0625,3.04687 0.043,1.45703 0.0977,2.34375 0.15625,2.65235 0.0625,0.30859 0.14453,0.52343 0.24219,0.64062 0.10156,0.11719 0.3125,0.22656 0.64062,0.32422 0.32813,0.10156 1.00391,0.15625 2.03125,0.16797 l 0.15234,0.14844 v 0.87109 l -0.15234,0.14844 c -0.64062,-0.0859 -1.67969,-0.12891 -3.11719,-0.12891 -1.84375,0 -3.45703,0.043 -4.84375,0.12891"
       id="path886"
       inkscape:connector-curvature="0" />
    <path
       style="fill:#211e1e;fill-opacity:1;fill-rule:nonzero;stroke:none"
       d="m 285.46094,254.27344 -0.16797,-0.16797 v -0.77735 l 0.16797,-0.16796 5.2539,-0.875 c 0.3711,0.26171 0.73047,0.58984 1.08594,0.98437 0.35156,0.39844 0.86328,1.13672 1.53906,2.21875 0.67578,1.08594 1.54297,2.59375 2.60547,4.53125 1.06641,1.93359 2.08594,3.875 3.06641,5.82031 l 1.89062,-3.00781 2.13672,-3.56641 3.9336,-6.73828 c 0.48437,0.0508 0.95312,0.0742 1.41406,0.0742 0.28125,0 0.71484,-0.0234 1.29687,-0.0742 l 0.14844,0.14844 v 0.35547 c -0.61719,0.67969 -1.57812,1.91406 -2.87891,3.70312 -1.29687,1.78907 -2.26562,3.1875 -2.90234,4.19532 -0.64062,1.00781 -1.42187,2.27343 -2.34766,3.80468 -0.92968,1.52735 -1.4375,2.44532 -1.52343,2.75782 -0.0859,0.30859 -0.12891,0.67187 -0.12891,1.09375 v 2.73047 l 0.0156,2.78125 c 0.0117,1.07812 0.0547,1.82812 0.12109,2.25781 0.0703,0.42578 0.16406,0.70312 0.28125,0.83594 0.11719,0.1289 0.33984,0.23828 0.66797,0.32421 0.32812,0.0859 1.14453,0.15235 2.45703,0.20313 l 0.14844,0.10937 v 0.92969 l -0.14844,0.14844 c -0.0625,0 -1.14844,-0.0391 -3.26563,-0.10938 -0.8789,-0.0273 -1.5664,-0.0391 -2.05859,-0.0391 -0.39844,0 -2.16797,0.0508 -5.30859,0.14844 l -0.15235,-0.14844 v -0.92969 l 0.15235,-0.10937 c 1.17187,-0.0508 1.94531,-0.11328 2.3164,-0.1875 0.3711,-0.0742 0.6211,-0.16797 0.75391,-0.28516 0.12891,-0.11718 0.23047,-0.34765 0.30469,-0.6875 0.0742,-0.33984 0.11718,-1.03515 0.13281,-2.08984 l 0.0352,-3.17188 v -3.52734 c -0.27344,-0.66797 -1.1836,-2.27344 -2.73047,-4.80859 l -1.63282,-2.65235 c -0.51953,-0.84375 -1.17187,-1.82422 -1.95703,-2.94531 -0.78515,-1.12109 -1.39453,-1.87891 -1.82812,-2.28125 -0.4336,-0.40234 -0.76563,-0.63672 -1.00391,-0.70703 -0.23437,-0.0664 -0.86719,-0.10156 -1.89062,-0.10156"
       id="path888"
       inkscape:connector-curvature="0" />
    <path
       style="fill:#211e1e;fill-opacity:1;fill-rule:nonzero;stroke:none"
       d="m 311.22656,252.66016 0.14453,-0.13282 c 3.07032,0.10157 4.83985,0.14844 5.3125,0.14844 0.41797,0 2.19532,-0.0469 5.32813,-0.14844 l 0.14453,0.13282 v 0.92578 l -0.14453,0.13281 c -0.85547,0.0234 -1.51563,0.0586 -1.98047,0.10937 -0.46094,0.0508 -0.80078,0.14063 -1.01172,0.27735 -0.20703,0.13672 -0.34766,0.45703 -0.41406,0.95703 -0.0703,0.5 -0.10156,1.19922 -0.10156,2.08984 l -0.0391,4.26953 v 8.20313 c 0,2.05469 0.0117,3.48828 0.0391,4.30859 l 0.0898,3.21094 h 3.78906 c 3.01563,0 4.90235,-0.0391 5.64844,-0.11328 0.75,-0.0742 1.47266,-0.25391 2.16406,-0.53906 0.13672,-0.3086 0.33203,-1.01953 0.58594,-2.13282 0.25391,-1.11718 0.38672,-1.75781 0.39844,-1.92968 l 0.16797,-0.14844 h 0.91015 l 0.12891,0.14844 c -0.10156,0.49218 -0.19922,1.45312 -0.3086,2.875 -0.10156,1.42578 -0.15625,2.57422 -0.15625,3.45312 l -0.14843,0.14844 c -2.35157,-0.0742 -5.4375,-0.10938 -9.26172,-0.10938 l -5.42188,-0.0391 c -1.23437,0 -2.5,0.0508 -3.78515,0.14844 l -0.14844,-0.14844 v -0.61328 l 0.14844,-0.18359 c 0.76562,-0.39844 1.1875,-0.63672 1.26172,-0.72657 0.0742,-0.0859 0.15234,-0.88281 0.23046,-2.39453 0.082,-1.50781 0.1211,-3.32812 0.1211,-5.45703 v -7.96094 l -0.0352,-3.62109 c -0.0156,-1.41016 -0.0469,-2.32031 -0.10547,-2.73047 -0.0547,-0.40625 -0.14062,-0.67969 -0.25781,-0.8164 -0.11719,-0.13672 -0.34375,-0.2461 -0.67578,-0.33204 -0.33594,-0.0859 -1.16016,-0.15625 -2.47266,-0.20312 l -0.14453,-0.13281 v -0.92578"
       id="path890"
       inkscape:connector-curvature="0" />
    <path
       style="fill:#211e1e;fill-opacity:1;fill-rule:nonzero;stroke:none"
       d="m 334.85547,252.52734 2.32031,0.0742 c 1.52344,0.0508 2.51953,0.0742 2.98828,0.0742 0.42188,0 2.19531,-0.0469 5.32813,-0.14844 l 0.14843,0.13282 v 0.92578 l -0.14843,0.13281 c -0.85157,0.0234 -1.51172,0.0586 -1.97657,0.10937 -0.46484,0.0508 -0.80078,0.14063 -1.01171,0.27735 -0.21094,0.13672 -0.35157,0.45703 -0.41797,0.95703 -0.0664,0.5 -0.10157,1.19922 -0.10157,2.08984 l -0.0391,4.26953 v 8.59375 l 0.0195,3.6211 c 0.0117,1.39844 0.0508,2.30078 0.11328,2.70703 0.0625,0.41016 0.15235,0.68359 0.26954,0.81641 0.11718,0.13671 0.33984,0.25 0.67578,0.34375 0.33203,0.0937 1.15625,0.16406 2.46875,0.21484 l 0.14843,0.10937 v 0.92969 l -0.14843,0.14844 c -0.0625,0 -1.14844,-0.0391 -3.26563,-0.10938 -0.8789,-0.0273 -1.5664,-0.0391 -2.0625,-0.0391 -0.38281,0 -2.15234,0.0508 -5.30859,0.14844 l -0.14844,-0.14844 v -0.92969 l 0.14844,-0.10937 c 1.15234,-0.0508 1.91797,-0.11328 2.30078,-0.1875 0.38281,-0.0742 0.64062,-0.16797 0.77344,-0.28516 0.1289,-0.11718 0.23437,-0.36718 0.3125,-0.7539 0.082,-0.38282 0.1289,-1.23438 0.14062,-2.5586 l 0.0195,-3.91797 v -8.59375 l -0.0391,-3.62109 c -0.0117,-1.41016 -0.0469,-2.32031 -0.10156,-2.73047 -0.0547,-0.40625 -0.14063,-0.67969 -0.25781,-0.8164 -0.11719,-0.13672 -0.34375,-0.2461 -0.67969,-0.33204 -0.33594,-0.0859 -1.15625,-0.15625 -2.46875,-0.20312 l -0.14844,-0.13281 v -0.92578 l 0.14844,-0.13282"
       id="path892"
       inkscape:connector-curvature="0" />
    <path
       style="fill:#211e1e;fill-opacity:1;fill-rule:nonzero;stroke:none"
       d="m 351.32031,264.74219 c 0,1.51172 0.24219,3.13672 0.73438,4.875 0.48828,1.73828 1.21875,3.23047 2.1875,4.47265 0.97265,1.24219 2.09375,2.16797 3.36328,2.77344 1.26562,0.60938 2.71094,0.91016 4.33203,0.91016 1.91797,0 3.625,-0.4375 5.125,-1.31641 1.49609,-0.87891 2.63672,-2.24219 3.41406,-4.09375 0.78125,-1.85156 1.16797,-3.92578 1.16797,-6.22656 0,-2.5 -0.44531,-4.75781 -1.33203,-6.77735 -0.89453,-2.01562 -2.16406,-3.48437 -3.80859,-4.39843 -1.64454,-0.91797 -3.46875,-1.375 -5.47657,-1.375 -3.00781,0 -5.375,0.9414 -7.10937,2.82422 -1.73047,1.8789 -2.59766,4.65625 -2.59766,8.33203 z m -3.85937,1.22656 c 0,-1.85547 0.26562,-3.58984 0.79687,-5.19922 0.53125,-1.60937 1.4375,-3.09375 2.71875,-4.46484 1.28125,-1.36719 2.82422,-2.42188 4.63281,-3.17188 1.80469,-0.75 3.84766,-1.125 6.125,-1.125 4.21875,0 7.57813,1.14844 10.07813,3.44531 2.5,2.29297 3.75,5.42969 3.75,9.40235 0,2.79687 -0.61328,5.30859 -1.83594,7.53515 -1.22656,2.22657 -2.98047,3.96094 -5.26172,5.19922 -2.28515,1.23438 -4.85156,1.85547 -7.69531,1.85547 -2.01562,0 -3.875,-0.33594 -5.57031,-1.01172 -1.69531,-0.67578 -3.14063,-1.67968 -4.33594,-3.01562 -1.19141,-1.33985 -2.05859,-2.88281 -2.59766,-4.64063 -0.53515,-1.75781 -0.80468,-3.35937 -0.80468,-4.80859"
       id="path894"
       inkscape:connector-curvature="0" />
    <path
       style="fill:#211e1e;fill-opacity:1;fill-rule:nonzero;stroke:none"
       d="m 377.55078,252.52734 c 3.11719,0.10157 5.10547,0.14844 5.95703,0.14844 1.16406,0 2.46875,-0.0273 3.91797,-0.0898 1.53516,-0.0508 2.48047,-0.0742 2.83984,-0.0742 1.73047,0 3.16407,0.17969 4.29688,0.53515 1.13281,0.35938 2.07031,1.01563 2.8125,1.96875 0.74219,0.95313 1.11328,2.10547 1.11328,3.45313 0,1.11328 -0.25781,2.19141 -0.77734,3.23047 -0.52344,1.03906 -1.2461,1.92187 -2.17188,2.65234 -0.92969,0.73047 -1.87109,1.25391 -2.82422,1.57031 -0.95312,0.31641 -1.9414,0.47266 -2.96875,0.47266 -0.76562,0 -1.62109,-0.0859 -2.5625,-0.25781 l -0.3164,-1.13281 0.16797,-0.1875 c 0.92968,0.21093 1.68359,0.3164 2.26562,0.3164 1.62109,0 2.92578,-0.53515 3.90625,-1.60547 0.98438,-1.07031 1.47656,-2.4414 1.47656,-4.11328 0,-1.67969 -0.50781,-3.02344 -1.53125,-4.02734 -1.01953,-1 -2.5625,-1.50391 -4.63281,-1.50391 -1.125,0 -2.36328,0.21094 -3.71094,0.63281 -0.11328,0.95313 -0.16797,3.25391 -0.16797,6.90625 v 8.59375 l 0.0195,3.6211 c 0.0117,1.39844 0.0508,2.30078 0.10937,2.70703 0.0625,0.41016 0.15234,0.68359 0.26953,0.81641 0.11719,0.13671 0.34375,0.25 0.67969,0.34375 0.33203,0.0937 1.15625,0.16406 2.46875,0.21484 l 0.14844,0.10937 v 0.92969 l -0.14844,0.14844 c -3.15625,-0.0977 -4.93359,-0.14844 -5.32813,-0.14844 -0.42187,0 -2.1914,0.0508 -5.30859,0.14844 l -0.14844,-0.14844 v -0.92969 l 0.14844,-0.10937 c 1.14844,-0.0508 1.91797,-0.11328 2.30078,-0.1875 0.38281,-0.0742 0.64063,-0.16797 0.76953,-0.28516 0.13282,-0.11718 0.23438,-0.36718 0.31641,-0.7539 0.082,-0.38282 0.125,-1.23438 0.14062,-2.5586 l 0.0195,-3.91797 v -8.59375 l -0.0391,-3.62109 c -0.0117,-1.41016 -0.0469,-2.32031 -0.10156,-2.73047 -0.0547,-0.40625 -0.14453,-0.67969 -0.26172,-0.8164 -0.11719,-0.13672 -0.33984,-0.2461 -0.67578,-0.33204 -0.33594,-0.0859 -1.15625,-0.15625 -2.46875,-0.20312 l -0.14844,-0.13281 v -0.92578 l 0.14844,-0.13282"
       id="path896"
       inkscape:connector-curvature="0" />
    <path
       style="fill:#211e1e;fill-opacity:1;fill-rule:nonzero;stroke:none"
       d="m 400.51562,252.52734 2.32032,0.0742 c 1.51953,0.0508 2.51562,0.0742 2.98437,0.0742 0.42188,0 2.19922,-0.0469 5.32813,-0.14844 l 0.14843,0.13282 v 0.92578 l -0.14843,0.13281 c -0.85157,0.0234 -1.51172,0.0586 -1.97657,0.10937 -0.46093,0.0508 -0.80078,0.14063 -1.01171,0.27735 -0.21094,0.13672 -0.34766,0.45703 -0.41797,0.95703 -0.0664,0.5 -0.10157,1.19922 -0.10157,2.08984 l -0.0351,4.26953 v 8.59375 l 0.0156,3.6211 c 0.0156,1.39844 0.0508,2.30078 0.11328,2.70703 0.0625,0.41016 0.15235,0.68359 0.26954,0.81641 0.11718,0.13671 0.34375,0.25 0.67578,0.34375 0.33593,0.0937 1.16015,0.16406 2.46875,0.21484 l 0.14843,0.10937 v 0.92969 l -0.14843,0.14844 c -0.0586,0 -1.14844,-0.0391 -3.26563,-0.10938 -0.8789,-0.0273 -1.5664,-0.0391 -2.0625,-0.0391 -0.38281,0 -2.15234,0.0508 -5.30469,0.14844 l -0.15234,-0.14844 v -0.92969 l 0.15234,-0.10937 c 1.14844,-0.0508 1.91797,-0.11328 2.30079,-0.1875 0.38281,-0.0742 0.63671,-0.16797 0.76953,-0.28516 0.1289,-0.11718 0.23437,-0.36718 0.3164,-0.7539 0.0781,-0.38282 0.125,-1.23438 0.13672,-2.5586 l 0.0195,-3.91797 v -8.59375 l -0.0391,-3.62109 c -0.0117,-1.41016 -0.043,-2.32031 -0.0977,-2.73047 -0.0586,-0.40625 -0.14453,-0.67969 -0.26171,-0.8164 -0.11719,-0.13672 -0.34375,-0.2461 -0.67969,-0.33204 -0.33203,-0.0859 -1.15625,-0.15625 -2.46485,-0.20312 l -0.15234,-0.13281 v -0.92578 l 0.15234,-0.13282"
       id="path898"
       inkscape:connector-curvature="0" />
    <path
       style="fill:#211e1e;fill-opacity:1;fill-rule:nonzero;stroke:none"
       d="m 413.69141,272.37109 0.14843,-0.14843 H 414.75 l 0.14844,0.14843 c 0.0625,1.58594 0.14453,2.55469 0.25,2.90625 0.10547,0.35157 0.4414,0.72266 1.0039,1.11328 0.5625,0.39063 1.3125,0.71094 2.2461,0.95704 0.93359,0.24609 1.875,0.37109 2.83203,0.37109 1.30859,0 2.48828,-0.24219 3.53515,-0.72656 1.04688,-0.48047 1.85938,-1.1875 2.44141,-2.125 0.57813,-0.9336 0.87109,-1.98047 0.87109,-3.14453 0,-0.81641 -0.14062,-1.52735 -0.41796,-2.13282 -0.27735,-0.60937 -0.66797,-1.09375 -1.16797,-1.45703 -0.50391,-0.36719 -1.07422,-0.64062 -1.71875,-0.82031 -0.64063,-0.17578 -1.60157,-0.37109 -2.87891,-0.58203 -1.23437,-0.19922 -2.20312,-0.37891 -2.90234,-0.53906 -0.69922,-0.16016 -1.39453,-0.41016 -2.08985,-0.74219 -0.6914,-0.33594 -1.26953,-0.75781 -1.73437,-1.27344 -0.46485,-0.51172 -0.83594,-1.14453 -1.11328,-1.89062 -0.28125,-0.75 -0.41797,-1.55079 -0.41797,-2.40625 0,-2.3125 0.80469,-4.21094 2.41406,-5.6875 1.60547,-1.48047 3.76563,-2.21875 6.47656,-2.21875 1.07813,0 2.25,0.13281 3.51953,0.39843 1.26563,0.26563 2.42188,0.66016 3.46094,1.17969 l 0.12891,0.22266 c -0.27344,1.13672 -0.4375,2.75781 -0.5,4.86328 l -0.16797,0.14844 h -0.96484 l -0.14844,-0.12891 c -0.0234,-1.48828 -0.0625,-2.42188 -0.11328,-2.80469 -0.0469,-0.38281 -0.60938,-0.85937 -1.6875,-1.42969 -1.07422,-0.57031 -2.2461,-0.85156 -3.50782,-0.85156 -1.05468,0 -2.03515,0.20703 -2.95312,0.62891 -0.91406,0.42187 -1.60938,1.08203 -2.07813,1.98828 -0.46875,0.90234 -0.70312,1.82422 -0.70312,2.76562 0,0.73047 0.14062,1.375 0.42578,1.9375 0.28516,0.5625 0.65234,1.00782 1.10547,1.33594 0.44922,0.32813 0.97656,0.57422 1.57812,0.73438 0.59766,0.16015 1.69532,0.35937 3.29297,0.59375 2.19141,0.30859 3.78125,0.68359 4.78125,1.125 0.9961,0.4375 1.79297,1.13281 2.39453,2.08593 0.59766,0.95313 0.89844,2.10547 0.89844,3.45313 0,2.63672 -1.07422,4.83203 -3.21875,6.58984 -2.14844,1.75782 -4.75,2.63672 -7.80469,2.63672 -2.5625,0 -4.8125,-0.45703 -6.74218,-1.375 l -0.10938,-0.24219 c 0.1211,-0.77734 0.21485,-2.59765 0.27735,-5.45703"
       id="path900"
       inkscape:connector-curvature="0" />
    <path
       style="fill:#211e1e;fill-opacity:1;fill-rule:nonzero;stroke:none"
       d="m 454.58594,252.52734 0.16797,0.16797 c -0.10938,1.11328 -0.16797,3.0586 -0.16797,5.82813 l -0.14844,0.14843 h -0.87109 l -0.14844,-0.16406 -0.20313,-1.71094 c -0.10156,-0.91406 -0.17968,-1.47265 -0.23437,-1.67968 -0.0547,-0.20313 -0.14453,-0.35157 -0.26953,-0.44532 -0.1211,-0.0937 -0.52344,-0.16796 -1.20313,-0.23046 -0.68359,-0.0625 -1.44531,-0.0937 -2.28515,-0.0937 h -3.50782 c -0.10156,2.79687 -0.14843,4.41406 -0.14843,4.84375 v 10.82421 l 0.0351,3.6211 c 0.0117,1.39844 0.0469,2.30469 0.10156,2.71875 0.0586,0.41406 0.14454,0.6875 0.26172,0.8164 0.11719,0.12891 0.34375,0.23829 0.67969,0.33204 0.33203,0.0937 1.16016,0.16406 2.48438,0.21484 l 0.13281,0.10937 v 0.92969 l -0.13281,0.14844 c -3.16797,-0.0977 -4.9375,-0.14844 -5.3086,-0.14844 -0.39453,0 -2.16015,0.0508 -5.28906,0.14844 l -0.14844,-0.14844 v -0.92969 l 0.14844,-0.10937 c 1.16016,-0.0508 1.93359,-0.11328 2.30859,-0.1875 0.37891,-0.0742 0.63282,-0.16797 0.76172,-0.28516 0.12891,-0.11718 0.23828,-0.36718 0.32422,-0.7539 0.0898,-0.38282 0.13281,-1.23438 0.13281,-2.5586 l 0.0352,-3.91797 v -10.82421 c 0,-0.19532 -0.0469,-1.8125 -0.14844,-4.84375 h -2.76562 c -1.14063,0 -2.1211,0.0234 -2.94922,0.0742 -0.83203,0.0508 -1.3086,0.17579 -1.44141,0.38282 -0.1289,0.20312 -0.25,0.86718 -0.35937,1.99218 l -0.1875,1.71094 -0.16797,0.16406 h -0.85156 l -0.15235,-0.14843 c -0.0234,-2.98047 -0.0781,-4.92578 -0.16406,-5.82813 l 0.16406,-0.16797 c 2.15625,0.10157 5.73828,0.14844 10.75,0.14844 5.11328,0 8.69922,-0.0469 10.76563,-0.14844"
       id="path902"
       inkscape:connector-curvature="0" />
    <path
       style="fill:#211e1e;fill-opacity:1;fill-rule:nonzero;stroke:none"
       d="m 460.23047,264.74219 c 0,1.51172 0.24219,3.13672 0.73437,4.875 0.48438,1.73828 1.21875,3.23047 2.1875,4.47265 0.97266,1.24219 2.08985,2.16797 3.36328,2.77344 1.26563,0.60938 2.71094,0.91016 4.33204,0.91016 1.91796,0 3.625,-0.4375 5.125,-1.31641 1.49609,-0.87891 2.63281,-2.24219 3.41406,-4.09375 0.77734,-1.85156 1.16797,-3.92578 1.16797,-6.22656 0,-2.5 -0.44532,-4.75781 -1.33594,-6.77735 -0.89063,-2.01562 -2.16016,-3.48437 -3.80469,-4.39843 -1.64453,-0.91797 -3.47265,-1.375 -5.47656,-1.375 -3.00781,0 -5.375,0.9414 -7.10938,2.82422 -1.73046,1.8789 -2.59765,4.65625 -2.59765,8.33203 z m -3.86328,1.22656 c 0,-1.85547 0.26953,-3.58984 0.80078,-5.19922 0.53125,-1.60937 1.4375,-3.09375 2.71875,-4.46484 1.28125,-1.36719 2.82422,-2.42188 4.63281,-3.17188 1.80469,-0.75 3.84766,-1.125 6.125,-1.125 4.21875,0 7.57813,1.14844 10.07813,3.44531 2.5,2.29297 3.75,5.42969 3.75,9.40235 0,2.79687 -0.61329,5.30859 -1.83594,7.53515 -1.22656,2.22657 -2.98047,3.96094 -5.26563,5.19922 -2.28125,1.23438 -4.84765,1.85547 -7.6914,1.85547 -2.01953,0 -3.875,-0.33594 -5.57032,-1.01172 -1.69531,-0.67578 -3.14062,-1.67968 -4.33593,-3.01562 -1.19532,-1.33985 -2.0586,-2.88281 -2.59766,-4.64063 -0.53906,-1.75781 -0.80859,-3.35937 -0.80859,-4.80859"
       id="path904"
       inkscape:connector-curvature="0" />
    <path
       style="fill:#211e1e;fill-opacity:1;fill-rule:nonzero;stroke:none"
       d="m 0,301.07031 0.148438,-0.1289 c 3.070312,0.10156 4.839843,0.14843 5.308593,0.14843 0.421875,0 2.195313,-0.0469 5.328125,-0.14843 l 0.148438,0.1289 V 302 l -0.148438,0.12891 c -0.855468,0.0273 -1.511718,0.0625 -1.976562,0.11328 -0.464844,0.0469 -0.800782,0.14062 -1.011719,0.27734 -0.210937,0.13672 -0.351563,0.45313 -0.417969,0.95703 -0.066406,0.5 -0.101562,1.19531 -0.101562,2.08594 l -0.039063,4.26953 v 5.90625 c 0,1.94141 0.042969,3.36719 0.121094,4.27734 0.082031,0.91016 0.253906,1.67579 0.519531,2.30079 0.265625,0.625 0.671875,1.16406 1.214844,1.61718 0.546875,0.44922 1.324219,0.82032 2.339844,1.10157 1.015625,0.28515 2.167968,0.42968 3.453125,0.42968 1.363281,0 2.632812,-0.1914 3.816406,-0.5664 1.179687,-0.37891 2.082031,-0.92578 2.699219,-1.64453 0.621094,-0.71875 1.023437,-1.66016 1.214844,-2.83204 0.191406,-1.16796 0.289062,-2.79296 0.289062,-4.87109 v -5.71875 c 0,-0.96484 -0.01563,-2.28906 -0.04687,-3.98047 -0.03125,-1.6914 -0.105469,-2.66015 -0.222656,-2.91406 -0.117188,-0.25391 -0.332031,-0.44531 -0.648438,-0.57422 -0.316406,-0.13281 -1.191406,-0.20703 -2.628906,-0.23437 l -0.148437,-0.14844 v -0.8711 l 0.148437,-0.16796 c 1.832031,0.10156 3.300781,0.14843 4.402344,0.14843 0.9375,0 2.398437,-0.0469 4.378906,-0.14843 l 0.167969,0.14843 v 0.89063 l -0.167969,0.14844 c -1.164063,0.0273 -1.921875,0.0742 -2.273437,0.14062 -0.351563,0.0664 -0.601563,0.16797 -0.742188,0.30469 -0.144531,0.13672 -0.246094,0.34765 -0.316406,0.63281 -0.06641,0.28516 -0.113282,1.10156 -0.140625,2.44922 l -0.05469,4.17578 v 5.64453 c 0,2.25391 -0.08594,4.02735 -0.257812,5.32813 -0.175781,1.30078 -0.5625,2.36718 -1.160157,3.20312 -0.601562,0.83203 -1.3125,1.53516 -2.136718,2.09766 -0.824219,0.5625 -1.878906,0.99609 -3.164063,1.29687 -1.289062,0.30469 -2.625,0.45703 -4.007812,0.45703 -1.734375,0 -3.265625,-0.1914 -4.597657,-0.57812 C 7.960938,326.89844 6.910156,326.39062 6.144531,325.76172 5.375,325.12891 4.824219,324.46484 4.492188,323.76562 4.15625,323.06641 3.941406,322.24219 3.84375,321.29687 3.742188,320.34766 3.695312,318.90625 3.695312,316.96094 v -7.12891 L 3.65625,306.21484 C 3.644531,304.80469 3.609375,303.89453 3.554688,303.48437 3.5,303.07812 3.414062,302.80469 3.292969,302.66797 c -0.117188,-0.13672 -0.34375,-0.2461 -0.675781,-0.33203 -0.335938,-0.0899 -1.15625,-0.15625 -2.46875,-0.20703 L 0,302 v -0.92969"
       id="path906"
       inkscape:connector-curvature="0" />
    <path
       style="fill:#211e1e;fill-opacity:1;fill-rule:nonzero;stroke:none"
       d="m 30.238281,327.30078 -0.167969,-0.16797 v -0.85156 l 0.167969,-0.14844 c 0.753907,-0.0156 1.359375,-0.0586 1.808594,-0.13281 0.453125,-0.0742 0.742187,-0.19531 0.875,-0.37109 0.128906,-0.17188 0.214844,-0.44922 0.257813,-0.83204 0.04297,-0.38671 0.08984,-1.25 0.132812,-2.60156 0.04297,-1.34765 0.0625,-2.3125 0.0625,-2.89453 v -15 c 0,-0.62891 -0.113281,-1.09766 -0.34375,-1.40234 -0.226562,-0.30078 -0.539062,-0.49219 -0.9375,-0.57422 -0.394531,-0.082 -1.070312,-0.125 -2.023438,-0.13672 l -0.148437,-0.15234 v -0.8711 l 0.148437,-0.16797 c 1.710938,0.0625 2.828126,0.0937 3.359376,0.0937 1.25,0 2.277343,-0.0312 3.082031,-0.0937 l 5.921875,7.6875 8.707031,10.91407 c 1.050781,1.32421 2.121094,2.58203 3.210937,3.76953 v -14.3711 c 0,-0.44531 -0.01953,-1.39453 -0.06641,-2.84765 -0.04297,-1.45313 -0.09375,-2.375 -0.15625,-2.76563 -0.0625,-0.39062 -0.167968,-0.65234 -0.324218,-0.78906 -0.15625,-0.13672 -0.445313,-0.23828 -0.871094,-0.30859 -0.429688,-0.0664 -1.007813,-0.10547 -1.738282,-0.11719 l -0.148437,-0.14844 v -0.85547 l 0.148437,-0.16797 c 1.003907,0.0625 2.433594,0.0937 4.289063,0.0937 1.695313,0 2.925781,-0.0312 3.695313,-0.0937 l 0.164062,0.16797 v 0.85547 l -0.144531,0.14844 c -0.820313,0.0117 -1.449219,0.0586 -1.894531,0.13672 -0.445313,0.082 -0.726563,0.21484 -0.835938,0.39843 -0.113281,0.1875 -0.1875,0.46094 -0.234375,0.82032 -0.04297,0.35937 -0.08594,1.21093 -0.128906,2.55859 -0.04297,1.35156 -0.0625,2.32031 -0.0625,2.91406 v 8.82032 l 0.01563,5.10546 c 0.02734,1.66797 0.05078,3.34766 0.07422,5.02735 -0.617187,-0.20703 -1.6875,-0.46875 -3.210937,-0.77735 l -1.316406,-1.55859 -3.953125,-4.82812 -12.585938,-15.72266 v 14.23828 c 0,0.56641 0.01953,1.58594 0.0625,3.04297 0.04297,1.46094 0.09766,2.34766 0.160156,2.65625 0.05859,0.30859 0.140626,0.52344 0.242188,0.64062 0.09766,0.11719 0.3125,0.22657 0.636719,0.32422 0.328125,0.0977 1.007812,0.15235 2.035156,0.16797 l 0.148437,0.14844 v 0.87109 l -0.148437,0.14844 c -0.644531,-0.0859 -1.683594,-0.12891 -3.117187,-0.12891 -1.847657,0 -3.460938,0.043 -4.847657,0.12891"
       id="path908"
       inkscape:connector-curvature="0" />
    <path
       style="fill:#211e1e;fill-opacity:1;fill-rule:nonzero;stroke:none"
       d="m 61.703125,300.94141 2.320313,0.0742 c 1.523437,0.0508 2.519531,0.0742 2.988281,0.0742 0.421875,0 2.195312,-0.0469 5.328125,-0.14843 l 0.148437,0.1289 V 302 l -0.148437,0.12891 c -0.855469,0.0273 -1.511719,0.0625 -1.976563,0.11328 -0.464843,0.0469 -0.800781,0.14062 -1.011719,0.27734 -0.210937,0.13672 -0.351562,0.45313 -0.417968,0.95703 -0.07031,0.5 -0.101563,1.19531 -0.101563,2.08594 l -0.03906,4.26953 v 8.59766 l 0.01953,3.61718 c 0.01172,1.39844 0.05078,2.30469 0.113281,2.71094 0.05859,0.41016 0.148438,0.67969 0.269531,0.81641 0.113282,0.13672 0.339844,0.25 0.675782,0.34375 0.335937,0.0937 1.15625,0.16406 2.46875,0.21484 l 0.148437,0.10938 v 0.92968 l -0.148437,0.14844 c -0.0625,0 -1.152344,-0.0391 -3.265625,-0.11328 -0.878907,-0.0234 -1.566407,-0.0352 -2.0625,-0.0352 -0.382813,0 -2.152344,0.0469 -5.308594,0.14844 l -0.148437,-0.14844 v -0.92968 l 0.148437,-0.10938 c 1.152344,-0.0508 1.917969,-0.11328 2.300781,-0.1875 0.382813,-0.0742 0.640625,-0.16797 0.773438,-0.28515 0.128906,-0.11719 0.234375,-0.3711 0.3125,-0.75391 0.08203,-0.38281 0.128906,-1.23828 0.140625,-2.5625 L 65.25,318.42969 v -8.59766 l -0.03906,-3.61719 c -0.01172,-1.41015 -0.04688,-2.32031 -0.101563,-2.73047 -0.05469,-0.40625 -0.140625,-0.67968 -0.261719,-0.8164 -0.117187,-0.13672 -0.339844,-0.2461 -0.675781,-0.33203 -0.332031,-0.0899 -1.15625,-0.15625 -2.46875,-0.20703 L 61.554688,302 v -0.92969 l 0.148437,-0.1289"
       id="path910"
       inkscape:connector-curvature="0" />
    <path
       style="fill:#211e1e;fill-opacity:1;fill-rule:nonzero;stroke:none"
       d="m 86.1875,327.50391 c -0.183594,-0.54297 -0.960938,-2.6211 -2.320312,-6.23438 l -6.3125,-15.61328 c -0.714844,-1.78125 -1.167969,-2.79297 -1.351563,-3.03516 -0.1875,-0.24218 -0.929687,-0.40625 -2.230469,-0.49218 l -0.167968,-0.16797 v -0.85157 l 0.167968,-0.16796 c 1.894532,0.10156 3.503906,0.14843 4.828125,0.14843 1.234375,0 2.875,-0.0469 4.917969,-0.14843 l 0.148438,0.14843 v 1.02344 l -0.148438,0.14844 c -1.496094,0 -2.390625,0.043 -2.683594,0.13672 -0.289062,0.0937 -0.433594,0.26953 -0.433594,0.53125 0,0.14843 0.195313,0.80468 0.59375,1.97656 0.394532,1.16797 0.746094,2.15625 1.058594,2.96094 l 5.808594,14.68359 4.84375,-12.17969 c 0.335938,-0.82812 0.824219,-2.16406 1.46875,-4.00781 0.644531,-1.84375 0.964844,-2.95312 0.964844,-3.32422 0,-0.30859 -0.152344,-0.50781 -0.453125,-0.59375 -0.304688,-0.0859 -1.210938,-0.1914 -2.722657,-0.3164 l -0.167968,-0.14844 v -0.89063 l 0.167968,-0.14843 c 2.167969,0.10156 3.546876,0.14843 4.140626,0.14843 0.480468,0 1.730468,-0.0469 3.750002,-0.14843 l 0.14844,0.14843 v 0.89063 l -0.14844,0.14844 c -0.890628,0.0391 -1.42969,0.10546 -1.613284,0.20703 -0.1875,0.0976 -0.351562,0.28906 -0.492187,0.57422 -0.144531,0.28515 -0.585938,1.26171 -1.328125,2.93359 l -5.792969,14.25391 c -1.296875,3.18359 -2.222656,5.64843 -2.765625,7.40625 h -1.875"
       id="path912"
       inkscape:connector-curvature="0" />
    <path
       style="fill:#211e1e;fill-opacity:1;fill-rule:nonzero;stroke:none"
       d="m 102.22656,301.07031 0.14844,-0.1289 c 4.24219,0.0742 6.96094,0.11328 8.14844,0.11328 4.05859,0 7.67187,-0.0391 10.83984,-0.11328 l 0.0937,0.1289 c -0.30859,1.19141 -0.53906,3.05078 -0.6875,5.58985 l -0.10937,0.14843 H 119.75 l -0.16797,-0.14843 c 0.0117,-0.11329 0.0195,-0.21094 0.0195,-0.29688 0,-1.05078 -0.082,-2.05469 -0.24218,-3.00781 -0.78125,-0.34766 -1.85938,-0.57422 -3.23829,-0.67969 -1.3789,-0.10156 -2.41796,-0.15625 -3.10937,-0.15625 -0.97656,0 -2.22656,0.0703 -3.75,0.20313 l -0.0742,2.97265 -0.0547,3.39453 -0.0586,3.76953 c 1.33984,0.0742 2.57031,0.11329 3.69531,0.11329 1.13672,0 2.08985,-0.0391 2.85938,-0.11329 0.76562,-0.0742 1.21484,-0.15234 1.34765,-0.23046 0.12891,-0.082 0.22657,-0.23829 0.29297,-0.46485 0.0703,-0.23047 0.12891,-0.63672 0.17969,-1.21484 l 0.0742,-1.15235 0.14844,-0.14843 h 0.85156 l 0.14844,0.14843 c -0.0234,1.34766 -0.0547,2.70313 -0.0937,4.06641 l 0.0937,4.17578 -0.14844,0.14844 h -0.85156 l -0.14844,-0.14844 -0.13281,-1.11328 c -0.10938,-0.86719 -0.19141,-1.38281 -0.23829,-1.55078 -0.0508,-0.16797 -0.16406,-0.3125 -0.34375,-0.4375 -0.17968,-0.12109 -0.64062,-0.22266 -1.38281,-0.29688 -0.74219,-0.0742 -1.76562,-0.10937 -3.0664,-0.10937 -0.71485,0 -1.8125,0.0312 -3.28516,0.0898 -0.0586,1.03907 -0.0898,2.77344 -0.0898,5.19922 0,2.59766 0.0312,4.51172 0.0898,5.73438 h 3.41797 c 3.00781,0 4.88672,-0.0352 5.64453,-0.10938 0.75391,-0.0742 1.46875,-0.2539 2.15234,-0.53906 0.10938,-0.28516 0.29297,-0.94141 0.54688,-1.97656 0.2539,-1.03125 0.39844,-1.67969 0.4375,-1.94141 l 0.18359,-0.12891 h 0.89063 l 0.14843,0.12891 c -0.10937,0.53516 -0.21875,1.46094 -0.32421,2.78516 -0.10547,1.32422 -0.15625,2.45703 -0.15625,3.39843 l -0.13282,0.14844 c -2.36328,-0.0742 -5.45703,-0.11328 -9.28125,-0.11328 l -5.04687,-0.0352 c -1.17578,0 -2.40235,0.0469 -3.67578,0.14844 l -0.14844,-0.14844 v -0.61328 l 0.14844,-0.1875 c 0.73047,-0.37109 1.14843,-0.60156 1.2539,-0.69531 0.10157,-0.0898 0.19141,-1.17578 0.25782,-3.24609 0.0703,-2.07422 0.10156,-3.65625 0.10156,-4.74219 v -6.81641 l -0.0156,-4.21093 c 0,-0.91797 -0.0156,-1.66407 -0.0391,-2.23829 -0.0234,-0.57421 -0.0664,-0.98437 -0.12891,-1.23437 -0.0625,-0.24609 -0.13281,-0.42188 -0.21484,-0.51953 -0.0781,-0.0977 -0.21094,-0.1836 -0.39062,-0.25 -0.17969,-0.0664 -0.48438,-0.12891 -0.91797,-0.17578 L 102.375,302.12891 102.22656,302 v -0.92969"
       id="path914"
       inkscape:connector-curvature="0" />
    <path
       style="fill:#211e1e;fill-opacity:1;fill-rule:nonzero;stroke:none"
       d="m 124.87109,301.07031 0.14844,-0.1289 c 2.26563,0.10156 4.03125,0.14843 5.29297,0.14843 1.39844,0 3.28516,-0.043 5.66016,-0.1289 0.8789,-0.0234 1.51562,-0.0391 1.91406,-0.0391 3.1289,0 5.2539,0.57032 6.36719,1.71094 1.11328,1.13672 1.66796,2.48438 1.66796,4.04688 0,1.03906 -0.26953,2.05859 -0.8164,3.0625 -0.54297,1 -1.34766,1.85937 -2.41406,2.57031 -1.0625,0.71094 -2.52735,1.24609 -4.39844,1.60547 0.34765,0.48047 0.97265,1.3164 1.875,2.5039 l 2.63672,3.49219 c 0.85547,1.14844 1.76953,2.36719 2.74609,3.64844 0.97656,1.27734 1.60938,2.00391 1.89453,2.17187 0.28516,0.16407 0.53125,0.26563 0.73438,0.30469 0.20312,0.0352 0.52734,0.0547 0.97265,0.0547 l 0.14844,0.14844 v 0.875 l -0.16406,0.16406 c -0.59766,-0.0742 -1.30078,-0.10938 -2.11719,-0.10938 -0.87891,0 -1.83984,0.0352 -2.87891,0.10938 -0.85156,-1.03906 -2.19531,-2.83984 -4.02734,-5.39844 -2.12891,-2.97265 -4.30469,-5.72656 -6.53516,-8.26172 l 0.1875,-0.57422 c 0.64063,0.0352 1.14454,0.0547 1.50391,0.0547 2.14063,0 3.81641,-0.51562 5.03125,-1.54297 1.21094,-1.02734 1.81641,-2.44922 1.81641,-4.26953 0,-1.63281 -0.54297,-2.86719 -1.63282,-3.70312 -1.08984,-0.83594 -2.5625,-1.25 -4.41796,-1.25 -1.30079,0 -2.52344,0.17968 -3.67579,0.53515 -0.1875,0.27344 -0.27734,2.59375 -0.27734,6.96094 v 8.59766 l 0.0195,3.61718 c 0.0117,1.39844 0.0469,2.30469 0.10938,2.71094 0.0625,0.41016 0.15234,0.67969 0.26953,0.81641 0.11719,0.13672 0.34375,0.25 0.67578,0.34375 0.33594,0.0937 1.16016,0.16406 2.46875,0.21484 l 0.15234,0.10938 v 0.92968 l -0.15234,0.14844 c -0.0586,0 -1.14844,-0.0391 -3.26563,-0.11328 -0.8789,-0.0234 -1.5664,-0.0352 -2.05859,-0.0352 -0.38672,0 -2.15625,0.0469 -5.3125,0.14844 l -0.14844,-0.14844 v -0.92968 l 0.14844,-0.10938 c 1.15235,-0.0508 1.91797,-0.11328 2.30469,-0.1875 0.38281,-0.0742 0.64062,-0.16797 0.76953,-0.28515 0.12891,-0.11719 0.23437,-0.3711 0.31641,-0.75391 0.0781,-0.38281 0.125,-1.23828 0.13671,-2.5625 l 0.0195,-3.91406 v -8.59766 l -0.0352,-3.61719 c -0.0117,-1.41015 -0.0469,-2.32031 -0.10156,-2.73047 -0.0586,-0.40625 -0.14453,-0.67968 -0.26172,-0.8164 -0.11719,-0.13672 -0.34375,-0.2461 -0.67969,-0.33203 -0.33203,-0.0899 -1.15625,-0.15625 -2.46875,-0.20703 L 124.87109,302 v -0.92969"
       id="path916"
       inkscape:connector-curvature="0" />
    <path
       style="fill:#211e1e;fill-opacity:1;fill-rule:nonzero;stroke:none"
       d="m 150.95312,320.78516 0.14844,-0.14844 h 0.91016 l 0.14844,0.14844 c 0.0625,1.58203 0.14453,2.55468 0.25,2.90625 0.10546,0.35156 0.4414,0.72265 1.0039,1.11328 0.5625,0.39062 1.3125,0.70703 2.2461,0.95703 0.93359,0.24609 1.875,0.37109 2.82812,0.37109 1.3125,0 2.49219,-0.24219 3.53906,-0.72656 1.04297,-0.48047 1.85938,-1.1875 2.44141,-2.125 0.58203,-0.93359 0.87109,-1.98047 0.87109,-3.14453 0,-0.81641 -0.14062,-1.52735 -0.41797,-2.13672 -0.27734,-0.60547 -0.66796,-1.08984 -1.16796,-1.45703 -0.5,-0.36328 -1.07422,-0.63672 -1.71875,-0.81641 -0.64454,-0.17969 -1.60157,-0.375 -2.875,-0.58203 -1.23829,-0.19922 -2.20704,-0.37891 -2.90625,-0.53906 -0.69922,-0.16016 -1.39454,-0.41016 -2.08985,-0.74219 -0.6914,-0.33594 -1.26953,-0.75781 -1.73437,-1.27344 -0.46485,-0.51172 -0.83594,-1.14453 -1.11328,-1.89453 -0.28125,-0.74609 -0.41797,-1.54687 -0.41797,-2.40234 0,-2.3125 0.80468,-4.21094 2.41406,-5.69141 1.60937,-1.47656 3.76562,-2.21484 6.47656,-2.21484 1.07813,0 2.25,0.13281 3.51953,0.39844 1.26563,0.26562 2.42188,0.65625 3.46094,1.17578 l 0.12891,0.22656 c -0.26953,1.13672 -0.4375,2.75781 -0.5,4.86328 l -0.16797,0.14844 h -0.96485 l -0.14843,-0.13281 c -0.0234,-1.48438 -0.0625,-2.41797 -0.10938,-2.80079 -0.0508,-0.38281 -0.61328,-0.85937 -1.6914,-1.42968 -1.07813,-0.57032 -2.2461,-0.85547 -3.50782,-0.85547 -1.05078,0 -2.03515,0.21094 -2.95312,0.63281 -0.91406,0.42188 -1.60938,1.08203 -2.07813,1.98438 -0.46875,0.90625 -0.70703,1.82812 -0.70703,2.76562 0,0.73047 0.14453,1.37891 0.42969,1.94141 0.28516,0.5625 0.65234,1.00781 1.10547,1.33593 0.44922,0.32813 0.97656,0.57422 1.57812,0.73438 0.59766,0.16016 1.69532,0.35937 3.29297,0.59375 2.19141,0.30859 3.78516,0.68359 4.78125,1.12109 0.9961,0.44141 1.79297,1.13672 2.39453,2.08985 0.59766,0.95312 0.89844,2.10547 0.89844,3.45312 0,2.63672 -1.07422,4.83203 -3.21875,6.58985 -2.14844,1.75781 -4.75,2.63671 -7.80859,2.63671 -2.5586,0 -4.80469,-0.46093 -6.73828,-1.375 l -0.10938,-0.24218 c 0.125,-0.77735 0.21484,-2.59766 0.27734,-5.45703"
       id="path918"
       inkscape:connector-curvature="0" />
    <path
       style="fill:#211e1e;fill-opacity:1;fill-rule:nonzero;stroke:none"
       d="m 170.53906,300.94141 2.32031,0.0742 c 1.51954,0.0508 2.51563,0.0742 2.98829,0.0742 0.41796,0 2.19531,-0.0469 5.32812,-0.14843 l 0.14844,0.1289 V 302 l -0.14844,0.12891 c -0.85547,0.0273 -1.51562,0.0625 -1.98047,0.11328 -0.46094,0.0469 -0.80078,0.14062 -1.00781,0.27734 -0.21094,0.13672 -0.35156,0.45313 -0.41797,0.95703 -0.0703,0.5 -0.10547,1.19531 -0.10547,2.08594 l -0.0352,4.26953 v 8.59766 l 0.0195,3.61718 c 0.0117,1.39844 0.0469,2.30469 0.10937,2.71094 0.0625,0.41016 0.15235,0.67969 0.26953,0.81641 0.11719,0.13672 0.34375,0.25 0.67578,0.34375 0.33594,0.0937 1.16016,0.16406 2.47266,0.21484 l 0.14844,0.10938 v 0.92968 l -0.14844,0.14844 c -0.0625,0 -1.15234,-0.0391 -3.26953,-0.11328 -0.87891,-0.0234 -1.56641,-0.0352 -2.05859,-0.0352 -0.38282,0 -2.15625,0.0469 -5.3086,0.14844 l -0.14844,-0.14844 v -0.92968 l 0.14844,-0.10938 c 1.14844,-0.0508 1.91797,-0.11328 2.30078,-0.1875 0.38282,-0.0742 0.64063,-0.16797 0.76953,-0.28515 0.12891,-0.11719 0.23438,-0.3711 0.31641,-0.75391 0.082,-0.38281 0.125,-1.23828 0.13672,-2.5625 l 0.0195,-3.91406 v -8.59766 l -0.0352,-3.61719 c -0.0117,-1.41015 -0.0469,-2.32031 -0.10156,-2.73047 -0.0586,-0.40625 -0.14453,-0.67968 -0.26172,-0.8164 -0.11718,-0.13672 -0.34375,-0.2461 -0.67578,-0.33203 -0.33594,-0.0899 -1.16015,-0.15625 -2.46875,-0.20703 L 170.39062,302 v -0.92969 l 0.14844,-0.1289"
       id="path920"
       inkscape:connector-curvature="0" />
    <path
       style="fill:#211e1e;fill-opacity:1;fill-rule:nonzero;stroke:none"
       d="m 204.65625,300.94141 0.16797,0.16796 c -0.11328,1.11329 -0.16797,3.05469 -0.16797,5.82813 l -0.14844,0.14844 h -0.87109 l -0.14844,-0.16797 -0.20703,-1.70703 c -0.0977,-0.91407 -0.17578,-1.47657 -0.23047,-1.67969 -0.0547,-0.20313 -0.14453,-0.35156 -0.26953,-0.44531 -0.125,-0.0937 -0.52734,-0.17188 -1.20703,-0.23047 -0.67969,-0.0625 -1.44141,-0.0937 -2.28125,-0.0937 h -3.51172 c -0.0977,2.79687 -0.14453,4.41015 -0.14453,4.84375 v 10.82422 l 0.0352,3.61718 c 0.0117,1.39844 0.0469,2.30469 0.10157,2.71875 0.0547,0.41797 0.14062,0.6875 0.26172,0.82032 0.11718,0.1289 0.34375,0.23828 0.67578,0.33203 0.33593,0.0937 1.16406,0.16406 2.48828,0.21484 l 0.1289,0.10938 v 0.92968 l -0.1289,0.14844 c -3.16797,-0.10156 -4.9375,-0.14844 -5.3086,-0.14844 -0.39843,0 -2.16015,0.0469 -5.28906,0.14844 l -0.15234,-0.14844 v -0.92968 l 0.15234,-0.10938 c 1.16016,-0.0508 1.92969,-0.11328 2.3086,-0.1875 0.3789,-0.0742 0.63281,-0.16797 0.76171,-0.28515 0.12891,-0.11719 0.23829,-0.3711 0.32422,-0.75391 0.0859,-0.38281 0.12891,-1.23828 0.12891,-2.5625 l 0.0391,-3.91406 v -10.82422 c 0,-0.19531 -0.0508,-1.8125 -0.14844,-4.84375 H 189.25 c -1.14063,0 -2.125,0.0234 -2.95313,0.0742 -0.82812,0.0508 -1.30859,0.17578 -1.4375,0.3789 -0.1289,0.20703 -0.25,0.8711 -0.36328,1.9961 l -0.18359,1.70703 -0.16797,0.16797 h -0.85547 l -0.14844,-0.14844 c -0.0234,-2.98438 -0.0781,-4.92578 -0.16406,-5.82813 l 0.16406,-0.16796 c 2.15625,0.10156 5.73829,0.14843 10.75,0.14843 5.10938,0 8.69922,-0.0469 10.76563,-0.14843"
       id="path922"
       inkscape:connector-curvature="0" />
    <path
       style="fill:#211e1e;fill-opacity:1;fill-rule:nonzero;stroke:none"
       d="m 205.82422,302.6875 -0.16406,-0.16797 v -0.78125 l 0.16406,-0.16406 5.2539,-0.875 c 0.3711,0.26172 0.73438,0.58984 1.08594,0.98437 0.35547,0.39453 0.86719,1.13672 1.54297,2.21875 0.67188,1.08203 1.54297,2.59375 2.60547,4.53125 1.06641,1.9336 2.08594,3.875 3.06641,5.81641 l 1.89062,-3.00781 2.13672,-3.5625 3.93359,-6.73828 c 0.48438,0.0508 0.95313,0.0742 1.41016,0.0742 0.28516,0 0.71875,-0.0234 1.30078,-0.0742 l 0.14844,0.14843 v 0.35157 c -0.6211,0.67968 -1.57813,1.91796 -2.87891,3.70312 -1.29687,1.78906 -2.26562,3.1875 -2.90234,4.19531 -0.64063,1.01172 -1.42188,2.27735 -2.35156,3.8086 -0.92579,1.52734 -1.4336,2.44531 -1.51954,2.7539 -0.0859,0.3125 -0.1289,0.67578 -0.1289,1.09375 v 2.73047 l 0.0156,2.78516 c 0.0117,1.07812 0.0547,1.82812 0.1211,2.2539 0.0703,0.42969 0.16015,0.70704 0.28125,0.83594 0.11718,0.13281 0.33984,0.23828 0.66797,0.32422 0.32421,0.0898 1.14453,0.15625 2.45703,0.20703 l 0.14843,0.10938 v 0.92968 l -0.14843,0.14844 c -0.0625,0 -1.14844,-0.0391 -3.26563,-0.11328 -0.8789,-0.0234 -1.5664,-0.0352 -2.0625,-0.0352 -0.39453,0 -2.16406,0.0469 -5.30859,0.14844 l -0.14844,-0.14844 v -0.92968 l 0.14844,-0.10938 c 1.17578,-0.0508 1.94922,-0.11328 2.32031,-0.1875 0.37109,-0.0742 0.625,-0.16797 0.75391,-0.28515 0.1289,-0.11719 0.23047,-0.34766 0.30468,-0.6875 0.0742,-0.33985 0.11719,-1.03907 0.12891,-2.08985 l 0.0391,-3.17187 v -3.52735 c -0.27343,-0.66797 -1.18359,-2.27343 -2.73047,-4.80859 l -1.63281,-2.65625 c -0.51953,-0.83984 -1.17187,-1.82031 -1.95703,-2.94141 -0.78516,-1.12109 -1.39453,-1.8789 -1.82812,-2.28515 -0.4336,-0.39844 -0.76954,-0.63672 -1.00391,-0.70313 -0.23438,-0.0664 -0.86719,-0.10156 -1.89453,-0.10156"
       id="path924"
       inkscape:connector-curvature="0" />
    <path
       style="fill:#211e1e;fill-opacity:1;fill-rule:nonzero;stroke:none"
       d="m 245.16016,313.15625 c 0,1.51172 0.24609,3.13281 0.73437,4.87109 0.48828,1.74219 1.21875,3.23047 2.19141,4.47657 0.96875,1.24218 2.08984,2.16796 3.35937,2.77343 1.26953,0.60547 2.71094,0.91016 4.33203,0.91016 1.91797,0 3.625,-0.44141 5.125,-1.32031 1.4961,-0.875 2.63672,-2.24219 3.41407,-4.08985 0.78125,-1.85156 1.16796,-3.92578 1.16796,-6.23047 0,-2.49609 -0.44531,-4.75781 -1.33593,-6.77343 -0.88672,-2.01563 -2.16016,-3.48438 -3.80078,-4.40235 C 258.69922,302.45703 256.875,302 254.86719,302 c -3.00391,0 -5.375,0.94141 -7.10547,2.82031 -1.73438,1.88281 -2.60156,4.66016 -2.60156,8.33594 z m -3.85938,1.22656 c 0,-1.85937 0.26563,-3.58984 0.79688,-5.19922 0.53125,-1.60937 1.4375,-3.09765 2.71875,-4.46484 1.28125,-1.36719 2.82421,-2.42578 4.63281,-3.17188 1.80469,-0.75 3.84765,-1.125 6.125,-1.125 4.22265,0 7.57812,1.14844 10.07812,3.44532 2.5,2.29297 3.75,5.42968 3.75,9.40234 0,2.79688 -0.61328,5.30859 -1.83593,7.53516 -1.22266,2.22656 -2.97657,3.96093 -5.26172,5.19531 -2.28516,1.23828 -4.85157,1.85937 -7.69532,1.85937 -2.01562,0 -3.875,-0.33984 -5.57031,-1.01171 -1.69531,-0.67579 -3.14062,-1.67969 -4.33203,-3.01954 -1.19531,-1.33593 -2.0625,-2.88281 -2.60156,-4.64062 -0.53516,-1.75391 -0.80469,-3.35938 -0.80469,-4.80469"
       id="path926"
       inkscape:connector-curvature="0" />
    <path
       style="fill:#211e1e;fill-opacity:1;fill-rule:nonzero;stroke:none"
       d="m 278.39062,314.66016 v 3.76953 l 0.0156,3.61718 c 0.0117,1.35157 0.0508,2.2461 0.11328,2.6836 0.0586,0.4375 0.15234,0.72265 0.26563,0.85547 0.12109,0.1289 0.34765,0.23828 0.67968,0.33203 0.33594,0.0937 1.15625,0.16406 2.46875,0.21484 l 0.14844,0.10938 v 0.92968 l -0.14844,0.14844 c -3.14453,-0.10156 -4.91797,-0.14844 -5.32812,-0.14844 -0.39453,0 -2.16406,0.0469 -5.3086,0.14844 l -0.14843,-0.14844 v -0.92968 l 0.14843,-0.10938 c 1.16407,-0.0508 1.9336,-0.11328 2.3125,-0.1875 0.375,-0.0742 0.62891,-0.17187 0.75782,-0.29687 0.13281,-0.1211 0.23828,-0.3711 0.32031,-0.74219 0.0781,-0.37109 0.125,-1.21094 0.13672,-2.52344 l 0.0195,-3.95312 v -8.59766 l -0.0391,-3.61719 c -0.0117,-1.41015 -0.043,-2.32031 -0.10157,-2.73047 -0.0547,-0.40625 -0.14062,-0.67968 -0.26171,-0.8164 -0.11719,-0.13672 -0.33985,-0.2461 -0.67579,-0.33203 -0.33203,-0.0899 -1.15625,-0.15625 -2.46875,-0.20703 L 271.14844,302 v -0.92969 l 0.14843,-0.1289 c 5.2461,0.0742 8.3086,0.11328 9.1875,0.11328 2.94532,0 5.96485,-0.0391 9.0625,-0.11328 l 0.14454,0.1289 c -0.19532,0.6211 -0.32813,1.32422 -0.38672,2.10938 -0.0625,0.78515 -0.12891,1.89453 -0.20313,3.33203 l -0.15234,0.14844 h -0.8711 l -0.1289,-0.14844 c -0.0234,-0.0859 -0.082,-0.5625 -0.16797,-1.42969 -0.0625,-0.67969 -0.16016,-1.30469 -0.29688,-1.875 -1.28906,-0.43359 -3.0625,-0.64844 -5.32812,-0.64844 -1.01563,0 -2.20313,0.0742 -3.5625,0.22266 -0.13672,0.96094 -0.20313,3.31641 -0.20313,7.05078 v 3.21484 c 1.57032,0.0234 2.64063,0.0352 3.21094,0.0352 1.05078,0 1.95313,-0.0391 2.70703,-0.12109 0.75391,-0.0781 1.20703,-0.15625 1.35547,-0.23047 0.14844,-0.0742 0.26563,-0.21485 0.34375,-0.41797 0.082,-0.20313 0.15625,-0.65234 0.23047,-1.34766 l 0.11328,-1 0.12891,-0.14843 h 0.94922 l 0.14843,0.16406 -0.13281,4.0664 c 0,0.47266 0.0195,1.15235 0.0586,2.04297 0.0469,1.01563 0.0742,1.80078 0.0742,2.35547 l -0.16796,0.14844 h -0.92969 l -0.12891,-0.14844 -0.0742,-1.57812 c -0.0391,-0.61719 -0.0976,-1.07032 -0.18359,-1.35157 -0.0898,-0.28515 -0.23047,-0.47265 -0.42969,-0.55859 -0.19531,-0.0859 -0.63672,-0.16797 -1.3164,-0.24219 -0.6836,-0.0742 -1.72657,-0.10937 -3.13672,-0.10937 -1.25,0 -2.19141,0.0156 -2.82032,0.0547"
       id="path928"
       inkscape:connector-curvature="0" />
    <g
       clip-path="url(#clip1)"
       id="g932"
       style="clip-rule:nonzero">
      <path
         style="fill:#211e1e;fill-opacity:1;fill-rule:nonzero;stroke:none"
         d="M 312.73047,301.07031 V 302 l -0.12891,0.12891 c -0.86719,0.0273 -1.53515,0.0625 -1.99609,0.11328 -0.46485,0.0469 -0.80078,0.14062 -1.01172,0.27734 -0.21094,0.13672 -0.35156,0.45313 -0.41797,0.95703 -0.0703,0.5 -0.10156,1.19531 -0.10156,2.08594 l -0.0391,4.26953 v 13.32813 c 0,1.95703 -0.17188,3.55468 -0.51954,4.80078 -0.34375,1.24218 -0.95312,2.39453 -1.82031,3.44922 -0.86719,1.0625 -1.75781,1.84765 -2.67969,2.35937 -0.92187,0.51563 -1.83593,0.76953 -2.73828,0.76953 -0.26172,0 -0.51953,-0.0273 -0.78125,-0.0898 0.0234,-0.4961 0.043,-0.99219 0.0586,-1.48438 0,-0.3125 -0.0195,-0.76953 -0.0586,-1.375 l 0.35547,-0.24218 c 0.62891,0.46875 1.29297,0.70703 1.98438,0.70703 0.60547,0 1.10547,-0.11719 1.49218,-0.34375 0.39063,-0.23047 0.66797,-0.53907 0.82813,-0.92969 0.16016,-0.39063 0.25781,-1.10547 0.29687,-2.14453 0.0352,-1.03906 0.0547,-1.92969 0.0547,-2.67188 v -16.13281 l -0.0351,-3.61719 c -0.0117,-1.41015 -0.0508,-2.32031 -0.11329,-2.73047 -0.0625,-0.40625 -0.14843,-0.67968 -0.26953,-0.8164 -0.11718,-0.13672 -0.33984,-0.2461 -0.66797,-0.33203 -0.32812,-0.0899 -1.15234,-0.15625 -2.47656,-0.20703 L 301.8125,302 v -0.92969 l 0.13281,-0.1289 c 3.12891,0.10156 4.90625,0.14843 5.32813,0.14843 0.42968,0 2.20703,-0.0469 5.32812,-0.14843 l 0.12891,0.1289"
         id="path930"
         inkscape:connector-curvature="0" />
    </g>
    <path
       style="fill:#211e1e;fill-opacity:1;fill-rule:nonzero;stroke:none"
       d="m 313.88281,302.6875 -0.16797,-0.16797 v -0.78125 l 0.16797,-0.16406 5.25391,-0.875 c 0.37109,0.26172 0.73047,0.58984 1.08594,0.98437 0.35156,0.39453 0.86328,1.13672 1.53906,2.21875 0.67578,1.08203 1.54297,2.59375 2.60547,4.53125 1.0664,1.9336 2.08593,3.875 3.0664,5.81641 l 1.89063,-3.00781 2.13672,-3.5625 3.93359,-6.73828 c 0.48438,0.0508 0.95313,0.0742 1.41406,0.0742 0.28125,0 0.71485,-0.0234 1.29688,-0.0742 l 0.14844,0.14843 v 0.35157 c -0.61719,0.67968 -1.57813,1.91796 -2.875,3.70312 -1.30079,1.78906 -2.26954,3.1875 -2.90625,4.19531 -0.63672,1.01172 -1.42188,2.27735 -2.34766,3.8086 -0.92969,1.52734 -1.4375,2.44531 -1.52344,2.7539 -0.0859,0.3125 -0.1289,0.67578 -0.1289,1.09375 v 2.73047 l 0.0156,2.78516 c 0.0156,1.07812 0.0547,1.82812 0.12109,2.2539 0.0703,0.42969 0.16016,0.70704 0.28125,0.83594 0.11719,0.13281 0.33985,0.23828 0.66797,0.32422 0.32813,0.0898 1.14453,0.15625 2.45703,0.20703 l 0.14844,0.10938 v 0.92968 l -0.14844,0.14844 c -0.0625,0 -1.14843,-0.0391 -3.26562,-0.11328 -0.87891,-0.0234 -1.56641,-0.0352 -2.0625,-0.0352 -0.39453,0 -2.16406,0.0469 -5.30469,0.14844 l -0.15234,-0.14844 v -0.92968 l 0.15234,-0.10938 c 1.17188,-0.0508 1.94531,-0.11328 2.31641,-0.1875 0.37109,-0.0742 0.62109,-0.16797 0.7539,-0.28515 0.12891,-0.11719 0.23047,-0.34766 0.30469,-0.6875 0.0742,-0.33985 0.11719,-1.03907 0.13281,-2.08985 l 0.0352,-3.17187 v -3.52735 c -0.27344,-0.66797 -1.18359,-2.27343 -2.73047,-4.80859 l -1.63281,-2.65625 c -0.51953,-0.83984 -1.17188,-1.82031 -1.95703,-2.94141 -0.78516,-1.12109 -1.39453,-1.8789 -1.82813,-2.28515 -0.43359,-0.39844 -0.76562,-0.63672 -1.0039,-0.70313 -0.23438,-0.0664 -0.86719,-0.10156 -1.89063,-0.10156"
       id="path934"
       inkscape:connector-curvature="0" />
    <path
       style="fill:#211e1e;fill-opacity:1;fill-rule:nonzero;stroke:none"
       d="m 351.73047,327.50391 c -0.1836,-0.54297 -0.96094,-2.6211 -2.32031,-6.23438 l -6.3125,-15.61328 c -0.71485,-1.78125 -1.16797,-2.79297 -1.35547,-3.03516 -0.1836,-0.24218 -0.92578,-0.40625 -2.22657,-0.49218 l -0.16796,-0.16797 v -0.85157 l 0.16796,-0.16796 c 1.89454,0.10156 3.50391,0.14843 4.82813,0.14843 1.23437,0 2.875,-0.0469 4.91797,-0.14843 l 0.14844,0.14843 v 1.02344 l -0.14844,0.14844 c -1.4961,0 -2.39063,0.043 -2.6836,0.13672 -0.28906,0.0937 -0.43359,0.26953 -0.43359,0.53125 0,0.14843 0.19531,0.80468 0.59375,1.97656 0.39453,1.16797 0.74609,2.15625 1.05859,2.96094 l 5.8086,14.68359 4.84375,-12.17969 c 0.33594,-0.82812 0.82422,-2.16406 1.46875,-4.00781 0.64062,-1.84375 0.96484,-2.95312 0.96484,-3.32422 0,-0.30859 -0.15234,-0.50781 -0.45703,-0.59375 -0.30078,-0.0859 -1.20703,-0.1914 -2.71875,-0.3164 l -0.16797,-0.14844 v -0.89063 l 0.16797,-0.14843 c 2.16406,0.10156 3.54688,0.14843 4.14063,0.14843 0.48046,0 1.73046,-0.0469 3.75,-0.14843 l 0.14843,0.14843 v 0.89063 l -0.14843,0.14844 c -0.89063,0.0391 -1.42969,0.10546 -1.61719,0.20703 -0.1836,0.0976 -0.34766,0.28906 -0.49219,0.57422 -0.14062,0.28515 -0.58203,1.26171 -1.32422,2.93359 l -5.79297,14.25391 c -1.30078,3.18359 -2.22265,5.64843 -2.76562,7.40625 h -1.875"
       id="path936"
       inkscape:connector-curvature="0" />
    <path
       style="fill:#211e1e;fill-opacity:1;fill-rule:nonzero;stroke:none"
       d="m 381.12109,297.58203 c -0.58203,0 -1.07812,-0.19922 -1.48437,-0.60156 -0.41016,-0.40235 -0.61328,-0.89453 -0.61328,-1.47656 0,-0.58204 0.20312,-1.07813 0.61328,-1.48438 0.40625,-0.41016 0.90234,-0.61328 1.48437,-0.61328 0.57813,0 1.07032,0.20312 1.47657,0.61328 0.39843,0.40625 0.60156,0.90234 0.60156,1.48438 0,0.58203 -0.20313,1.07421 -0.60156,1.47656 -0.40625,0.40234 -0.89844,0.60156 -1.47657,0.60156 z m -9.98828,19.32422 h 9.39453 l -4.66015,-11.19531 z m 0.83594,-19.32422 c -0.58203,0 -1.07813,-0.19922 -1.48438,-0.60156 -0.41015,-0.40235 -0.61328,-0.89453 -0.61328,-1.47656 0,-0.58204 0.20313,-1.07813 0.61328,-1.48438 0.40625,-0.41016 0.90235,-0.61328 1.48438,-0.61328 0.58203,0 1.07422,0.20312 1.47656,0.61328 0.40235,0.40625 0.60156,0.90234 0.60156,1.48438 0,0.58203 -0.19921,1.07421 -0.60156,1.47656 -0.40234,0.40234 -0.89453,0.60156 -1.47656,0.60156 z m -9.30078,29.73828 -0.16797,-0.14844 v -0.96484 l 0.16797,-0.14844 c 0.90234,-0.0117 1.48437,-0.0625 1.74609,-0.14062 0.25781,-0.0781 0.49219,-0.24219 0.69531,-0.48047 0.20313,-0.24219 0.61719,-1.03125 1.23438,-2.36719 l 1.94922,-4.23437 5.05078,-11.4336 c 0.95312,-2.24218 1.89844,-4.48047 2.83984,-6.71875 h 1.20703 l 7.92579,18.63672 1.05468,2.48828 c 0.3125,0.70313 0.66797,1.47266 1.07032,2.30078 0.40234,0.82813 0.67968,1.31641 0.83593,1.46485 0.15235,0.14844 0.34375,0.26562 0.57422,0.34375 0.22656,0.0781 0.73828,0.1289 1.53125,0.14062 l 0.14844,0.14844 v 0.96484 l -0.14844,0.14844 c -1.3125,-0.11328 -2.49219,-0.16797 -3.54687,-0.16797 -2.05469,0.0625 -4.10547,0.11719 -6.16016,0.16797 l -0.14844,-0.14844 v -0.96484 l 0.14844,-0.14844 c 1.38672,-0.0273 2.25,-0.0859 2.59766,-0.17578 0.34375,-0.0937 0.51953,-0.30859 0.51953,-0.64062 0,-0.27344 -0.0859,-0.63282 -0.26172,-1.07813 L 381.25,318.50391 h -10.74609 l -2.02344,4.75 c -0.36328,0.85546 -0.53906,1.48046 -0.53906,1.875 0,0.30859 0.16406,0.53906 0.5,0.6875 0.33203,0.14843 1.17578,0.23046 2.52343,0.24218 l 0.16797,0.14844 v 0.96484 l -0.14844,0.14844 c -1.59765,-0.10156 -2.99609,-0.14844 -4.19531,-0.14844 -1.35937,0 -2.73437,0.0469 -4.12109,0.14844"
       id="path938"
       inkscape:connector-curvature="0" />
    <path
       style="fill:#211e1e;fill-opacity:1;fill-rule:nonzero;stroke:none"
       d="m 392.89062,320.78516 0.14844,-0.14844 h 0.90625 l 0.15235,0.14844 c 0.0586,1.58203 0.14453,2.55468 0.25,2.90625 0.10156,0.35156 0.4375,0.72265 1,1.11328 0.5625,0.39062 1.3125,0.70703 2.24609,0.95703 0.93359,0.24609 1.87891,0.37109 2.83203,0.37109 1.3125,0 2.48828,-0.24219 3.53516,-0.72656 1.04687,-0.48047 1.85937,-1.1875 2.4414,-2.125 0.58203,-0.93359 0.8711,-1.98047 0.8711,-3.14453 0,-0.81641 -0.13672,-1.52735 -0.41407,-2.13672 -0.28125,-0.60547 -0.67187,-1.08984 -1.17187,-1.45703 -0.5,-0.36328 -1.07422,-0.63672 -1.71484,-0.81641 -0.64454,-0.17969 -1.60547,-0.375 -2.87891,-0.58203 -1.23828,-0.19922 -2.20703,-0.37891 -2.90625,-0.53906 -0.69922,-0.16016 -1.39453,-0.41016 -2.08594,-0.74219 -0.69531,-0.33594 -1.27344,-0.75781 -1.73828,-1.27344 -0.46094,-0.51172 -0.83594,-1.14453 -1.11328,-1.89453 -0.27734,-0.74609 -0.41406,-1.54687 -0.41406,-2.40234 0,-2.3125 0.80078,-4.21094 2.41015,-5.69141 1.60938,-1.47656 3.76953,-2.21484 6.48047,-2.21484 1.07422,0 2.25,0.13281 3.51563,0.39844 1.26953,0.26562 2.42187,0.65625 3.46093,1.17578 l 0.13282,0.22656 c -0.27344,1.13672 -0.44141,2.75781 -0.5,4.86328 l -0.16797,0.14844 h -0.96875 l -0.14453,-0.13281 c -0.0274,-1.48438 -0.0625,-2.41797 -0.11328,-2.80079 -0.0508,-0.38281 -0.61329,-0.85937 -1.6875,-1.42968 -1.07813,-0.57032 -2.2461,-0.85547 -3.51172,-0.85547 -1.05078,0 -2.03516,0.21094 -2.94922,0.63281 -0.91797,0.42188 -1.60938,1.08203 -2.07813,1.98438 -0.47265,0.90625 -0.70703,1.82812 -0.70703,2.76562 0,0.73047 0.14063,1.37891 0.42578,1.94141 0.28516,0.5625 0.65625,1.00781 1.10547,1.33593 0.45313,0.32813 0.97656,0.57422 1.57813,0.73438 0.60156,0.16016 1.69922,0.35937 3.29297,0.59375 2.1914,0.30859 3.78515,0.68359 4.78125,1.12109 0.99609,0.44141 1.79296,1.13672 2.39453,2.08985 0.60156,0.95312 0.90234,2.10547 0.90234,3.45312 0,2.63672 -1.07422,4.83203 -3.22266,6.58985 -2.14843,1.75781 -4.74609,2.63671 -7.80468,2.63671 -2.5625,0 -4.8086,-0.46093 -6.73828,-1.375 l -0.11329,-0.24218 c 0.125,-0.77735 0.21875,-2.59766 0.28125,-5.45703"
       id="path940"
       inkscape:connector-curvature="0" />
    <path
       style="fill:#211e1e;fill-opacity:1;fill-rule:nonzero;stroke:none"
       d="m 419.5625,313.73047 c 3.10937,-2.8086 5.35156,-4.90235 6.73047,-6.28125 1.3789,-1.37891 2.51953,-2.51953 3.41797,-3.41797 0.89453,-0.89453 1.42968,-1.47266 1.60156,-1.73438 v -1.20703 l 0.1875,-0.14843 c 0.94141,0.0508 1.96875,0.0742 3.08203,0.0742 0.24609,0 1.22656,-0.0195 2.93359,-0.0547 l 0.1836,0.16797 V 302 l -0.14844,0.14844 c -1.15234,0 -1.9375,0.0664 -2.35547,0.19531 -0.42187,0.12891 -1.03906,0.52344 -1.84765,1.1875 -0.8125,0.66406 -1.74219,1.47656 -2.79297,2.44141 l -7.51953,6.86718 11.17578,10.33985 c 1.79297,1.67187 2.80078,2.58203 3.01562,2.73047 0.21485,0.14843 0.66406,0.23437 1.34375,0.25781 l 0.13281,0.14844 v 0.78125 l -0.13281,0.14843 c -0.71484,-0.0508 -1.45703,-0.0742 -2.22656,-0.0742 -0.45703,0 -1.45703,0.0234 -3.00391,0.0742 -1.1289,-1.0664 -2.11328,-2.0039 -2.96093,-2.82031 -0.85157,-0.82031 -4.45313,-4.13672 -10.81641,-9.95312 v 3.95703 l 0.0195,3.61718 c 0.0117,1.39844 0.0508,2.30469 0.11328,2.71094 0.0625,0.41016 0.15235,0.67969 0.26953,0.81641 0.11719,0.13672 0.34375,0.25 0.67578,0.34375 0.33594,0.0937 1.15625,0.16406 2.46875,0.21484 l 0.14844,0.10938 v 0.92968 l -0.14844,0.14844 c -0.0625,0 -1.14843,-0.0391 -3.26562,-0.11328 -0.87891,-0.0234 -1.56641,-0.0352 -2.0625,-0.0352 -0.38281,0 -2.15234,0.0469 -5.30859,0.14844 l -0.14844,-0.14844 v -0.92968 l 0.14844,-0.10938 c 1.15234,-0.0508 1.91796,-0.11328 2.30078,-0.1875 0.38281,-0.0742 0.64062,-0.16797 0.77343,-0.28515 0.12891,-0.11719 0.23438,-0.3711 0.3125,-0.75391 0.082,-0.38281 0.12891,-1.23828 0.14063,-2.5625 l 0.0195,-3.91406 v -8.59766 l -0.0391,-3.61719 c -0.0117,-1.41015 -0.043,-2.32031 -0.10156,-2.73047 -0.0547,-0.40625 -0.14063,-0.67968 -0.26172,-0.8164 -0.11328,-0.13672 -0.33985,-0.2461 -0.67578,-0.33203 -0.33594,-0.0899 -1.15625,-0.15625 -2.46875,-0.20703 L 412.32422,302 v -0.92969 l 0.14844,-0.1289 2.32031,0.0742 c 1.52344,0.0508 2.51953,0.0742 2.98828,0.0742 0.42187,0 2.19922,-0.0469 5.32812,-0.14843 l 0.14844,0.1289 V 302 l -0.14844,0.12891 c -0.85156,0.0273 -1.51171,0.0625 -1.97656,0.11328 -0.46484,0.0469 -0.80078,0.14062 -1.01172,0.27734 -0.21093,0.13672 -0.35156,0.45313 -0.41797,0.95703 -0.0664,0.5 -0.10156,1.19531 -0.10156,2.08594 l -0.0391,4.26953 v 3.89844"
       id="path942"
       inkscape:connector-curvature="0" />
    <path
       style="fill:#211e1e;fill-opacity:1;fill-rule:nonzero;stroke:none"
       d="m 439.26172,302.6875 -0.16797,-0.16797 v -0.78125 l 0.16797,-0.16406 5.2539,-0.875 c 0.3711,0.26172 0.73047,0.58984 1.08594,0.98437 0.35156,0.39453 0.86328,1.13672 1.53906,2.21875 0.67188,1.08203 1.54297,2.59375 2.60547,4.53125 1.06641,1.9336 2.08594,3.875 3.06641,5.81641 l 1.89062,-3.00781 2.13672,-3.5625 3.9336,-6.73828 c 0.48437,0.0508 0.95312,0.0742 1.41406,0.0742 0.28125,0 0.71484,-0.0234 1.29687,-0.0742 l 0.14844,0.14843 v 0.35157 c -0.61719,0.67968 -1.57812,1.91796 -2.875,3.70312 -1.30078,1.78906 -2.26953,3.1875 -2.90625,4.19531 -0.63672,1.01172 -1.42187,2.27735 -2.34765,3.8086 -0.92969,1.52734 -1.4375,2.44531 -1.52344,2.7539 -0.0859,0.3125 -0.12891,0.67578 -0.12891,1.09375 v 2.73047 l 0.0156,2.78516 c 0.0156,1.07812 0.0547,1.82812 0.12109,2.2539 0.0703,0.42969 0.16016,0.70704 0.28125,0.83594 0.11719,0.13281 0.33984,0.23828 0.66797,0.32422 0.32812,0.0898 1.14844,0.15625 2.45703,0.20703 l 0.14844,0.10938 v 0.92968 l -0.14844,0.14844 c -0.0586,0 -1.14844,-0.0391 -3.26562,-0.11328 -0.87891,-0.0234 -1.56641,-0.0352 -2.0625,-0.0352 -0.39454,0 -2.16407,0.0469 -5.30469,0.14844 l -0.15235,-0.14844 v -0.92968 l 0.15235,-0.10938 c 1.17187,-0.0508 1.94531,-0.11328 2.3164,-0.1875 0.3711,-0.0742 0.6211,-0.16797 0.75391,-0.28515 0.12891,-0.11719 0.23047,-0.34766 0.30469,-0.6875 0.0742,-0.33985 0.11719,-1.03907 0.13281,-2.08985 l 0.0352,-3.17187 v -3.52735 c -0.27344,-0.66797 -1.1836,-2.27343 -2.73047,-4.80859 l -1.63281,-2.65625 c -0.51954,-0.83984 -1.17188,-1.82031 -1.95704,-2.94141 -0.78515,-1.12109 -1.39453,-1.8789 -1.82812,-2.28515 -0.43359,-0.39844 -0.76563,-0.63672 -1.00391,-0.70313 -0.23437,-0.0664 -0.86718,-0.10156 -1.89062,-0.10156"
       id="path944"
       inkscape:connector-curvature="0" />
    <path
       style="fill:#211e1e;fill-opacity:1;fill-rule:nonzero;stroke:none"
       d="m 465.02344,301.07031 0.14843,-0.1289 c 3.07032,0.10156 4.83985,0.14843 5.3086,0.14843 0.42187,0 2.19922,-0.0469 5.32812,-0.14843 l 0.14844,0.1289 V 302 l -0.14844,0.12891 c -0.85156,0.0273 -1.51172,0.0625 -1.97656,0.11328 -0.46484,0.0469 -0.80078,0.14062 -1.01172,0.27734 -0.21094,0.13672 -0.34765,0.45313 -0.41797,0.95703 -0.0664,0.5 -0.10156,1.19531 -0.10156,2.08594 l -0.0352,4.26953 v 8.20703 c 0,2.05469 0.0117,3.48828 0.0352,4.30469 l 0.0937,3.21094 h 3.78516 c 3.01953,0 4.90625,-0.0352 5.65234,-0.10938 0.75,-0.0742 1.47266,-0.2539 2.16406,-0.53906 0.13672,-0.30859 0.33203,-1.01953 0.58594,-2.13281 0.25391,-1.11719 0.38672,-1.75782 0.39844,-1.9336 l 0.16406,-0.14843 h 0.91406 l 0.12891,0.14843 c -0.10156,0.4961 -0.20313,1.45703 -0.30859,2.87891 -0.10547,1.42187 -0.15625,2.57422 -0.15625,3.45312 l -0.14844,0.14844 c -2.35156,-0.0742 -5.4375,-0.11328 -9.26172,-0.11328 l -5.42188,-0.0352 c -1.23828,0 -2.5,0.0469 -3.78515,0.14844 l -0.15235,-0.14844 v -0.61328 l 0.15235,-0.1875 c 0.76562,-0.39453 1.1875,-0.63672 1.26172,-0.72265 0.0742,-0.0859 0.15234,-0.88282 0.23047,-2.39453 0.082,-1.51172 0.12109,-3.32813 0.12109,-5.45704 v -7.96484 l -0.0352,-3.61719 c -0.0156,-1.41015 -0.0469,-2.32031 -0.10547,-2.73047 -0.0547,-0.40625 -0.14062,-0.67968 -0.25781,-0.8164 -0.11719,-0.13672 -0.34375,-0.2461 -0.67578,-0.33203 -0.33594,-0.0899 -1.16016,-0.15625 -2.47266,-0.20703 L 465.02344,302 v -0.92969"
       id="path946"
       inkscape:connector-curvature="0" />
    <g
       clip-path="url(#clip2)"
       id="g950"
       style="clip-rule:nonzero">
      <path
         style="fill:#211e1e;fill-opacity:1;fill-rule:nonzero;stroke:none"
         d="m 506.82812,297.58203 c -0.58203,0 -1.07421,-0.19922 -1.48437,-0.60156 -0.40625,-0.40235 -0.61328,-0.89453 -0.61328,-1.47656 0,-0.58204 0.20703,-1.07813 0.61328,-1.48438 0.41016,-0.41016 0.90234,-0.61328 1.48437,-0.61328 0.58204,0 1.07422,0.20312 1.47657,0.61328 0.40234,0.40625 0.60156,0.90234 0.60156,1.48438 0,0.58203 -0.19922,1.07421 -0.60156,1.47656 -0.40235,0.40234 -0.89453,0.60156 -1.47657,0.60156 z m -9.98437,19.32422 h 9.39062 l -4.66015,-11.19531 z m 0.83594,-19.32422 c -0.58203,0 -1.07813,-0.19922 -1.48828,-0.60156 -0.40625,-0.40235 -0.61329,-0.89453 -0.61329,-1.47656 0,-0.58204 0.20704,-1.07813 0.61329,-1.48438 0.41015,-0.41016 0.90625,-0.61328 1.48828,-0.61328 0.57812,0 1.07031,0.20312 1.47265,0.61328 0.40235,0.40625 0.60547,0.90234 0.60547,1.48438 0,0.58203 -0.20312,1.07421 -0.60547,1.47656 -0.40234,0.40234 -0.89453,0.60156 -1.47265,0.60156 z m -9.30078,29.73828 -0.16797,-0.14844 v -0.96484 l 0.16797,-0.14844 c 0.90234,-0.0117 1.48437,-0.0625 1.74218,-0.14062 0.26172,-0.0781 0.49219,-0.24219 0.69532,-0.48047 0.20703,-0.24219 0.61718,-1.03125 1.23828,-2.36719 l 1.94922,-4.23437 5.04687,-11.4336 c 0.95313,-2.24218 1.89844,-4.48047 2.83984,-6.71875 h 1.20704 l 7.92578,18.63672 1.05859,2.48828 c 0.30859,0.70313 0.66406,1.47266 1.06641,2.30078 0.40234,0.82813 0.67968,1.31641 0.83593,1.46485 0.15625,0.14844 0.34766,0.26562 0.57813,0.34375 0.22656,0.0781 0.73828,0.1289 1.53125,0.14062 l 0.14453,0.14844 v 0.96484 l -0.14453,0.14844 c -1.3125,-0.11328 -2.49609,-0.16797 -3.54688,-0.16797 -2.05468,0.0625 -4.10937,0.11719 -6.16406,0.16797 l -0.14844,-0.14844 v -0.96484 l 0.14844,-0.14844 c 1.38672,-0.0273 2.25391,-0.0859 2.59766,-0.17578 0.34765,-0.0937 0.52344,-0.30859 0.52344,-0.64062 0,-0.27344 -0.0899,-0.63282 -0.26172,-1.07813 l -2.28125,-5.66015 h -10.75 l -2.02344,4.75 c -0.35938,0.85546 -0.53906,1.48046 -0.53906,1.875 0,0.30859 0.16797,0.53906 0.5,0.6875 0.33593,0.14843 1.17578,0.23046 2.52734,0.24218 l 0.16797,0.14844 v 0.96484 l -0.15234,0.14844 c -1.59375,-0.10156 -2.99219,-0.14844 -4.19532,-0.14844 -1.35937,0 -2.73437,0.0469 -4.11718,0.14844"
         id="path948"
         inkscape:connector-curvature="0" />
    </g>
  </g>
</svg>
